<?xml version="1.0" standalone="no"?>
<!DOCTYPE svg PUBLIC "-//W3C//DTD SVG 20010904//EN"
 "http://www.w3.org/TR/2001/REC-SVG-20010904/DTD/svg10.dtd">
<svg version="1.0" xmlns="http://www.w3.org/2000/svg"
 width="162.000000pt" height="162.000000pt" viewBox="0 0 162.000000 162.000000"
 preserveAspectRatio="xMidYMid meet">
<metadata>
Created by potrace 1.11, written by Peter Selinger 2001-2013
</metadata>
<g transform="translate(0.000000,162.000000) scale(0.100000,-0.100000)"
fill="#000000" stroke="none">
<path d="M0 810 l0 -810 810 0 810 0 0 810 0 810 -810 0 -810 0 0 -810z m630
368 l0 -163 163 163 162 162 168 0 167 0 0 -167 0 -168 -162 -162 -163 -163
163 0 162 0 0 -170 0 -170 -165 0 -165 0 0 167 0 168 -168 -168 -167 -167
-163 0 -162 0 0 172 0 173 162 162 163 163 -163 0 -162 0 0 165 0 165 165 0
165 0 0 -162z"/>
</g>
</svg>
