<svg xmlns="http://www.w3.org/2000/svg" width="63.145" height="80.117"><path d="M5.41 73.501l3.112 3.112a11.96 11.96 0 008.457 3.5h30.387a11.96 11.96 0 008.457-3.5l3.112-3.112z" fill="#e6e6e6"/><path d="M31.572 17.871h0A22.252 22.252 0 0153.82 40.123v27.063h0-44.5 0V40.123a22.252 22.252 0 0122.252-22.252z" fill="#fff" stroke="#fbb03b" stroke-miterlimit="10" stroke-width="2.835"/><path d="M5.035 7.547H3.613v4.235H.5V.721h3.113v4.3h1.5l2.639-4.3h3.287L7.578 6.062l3.492 5.72H7.547zm15.597 2.09h-4.677l-.87 2.149h-3.191L16.776.725h3.081l4.9 11.061h-3.255zm-.917-2.307l-1.422-3.539-1.422 3.539zm8.397 3.939a5.491 5.491 0 01-2.173-2.046 5.983 5.983 0 010-5.941 5.493 5.493 0 012.173-2.047A6.542 6.542 0 0131.233.5a6.707 6.707 0 012.734.538 5.264 5.264 0 012.022 1.546l-1.991 1.8a3.277 3.277 0 00-2.608-1.3 3.22 3.22 0 00-1.6.4 2.738 2.738 0 00-1.091 1.114 3.718 3.718 0 000 3.3 2.737 2.737 0 001.091 1.114 3.214 3.214 0 001.6.4 3.276 3.276 0 002.608-1.3l1.991 1.8a5.265 5.265 0 01-2.023 1.549 6.707 6.707 0 01-2.734.537 6.549 6.549 0 01-3.12-.729zm12.498 0a5.489 5.489 0 01-2.173-2.046 5.982 5.982 0 010-5.941 5.49 5.49 0 012.173-2.047A6.538 6.538 0 0143.73.5a6.707 6.707 0 012.734.538 5.258 5.258 0 012.023 1.548l-1.991 1.798a3.277 3.277 0 00-2.608-1.3 3.22 3.22 0 00-1.6.4 2.742 2.742 0 00-1.091 1.114 3.718 3.718 0 000 3.3 2.74 2.74 0 001.091 1.114 3.214 3.214 0 001.6.4 3.276 3.276 0 002.608-1.3l1.991 1.8a5.259 5.259 0 01-2.023 1.549 6.707 6.707 0 01-2.734.537 6.545 6.545 0 01-3.12-.729zm17.911-1.632h-4.677l-.87 2.149h-3.191L54.665.725h3.081l4.9 11.061h-3.255zm-.917-2.307l-1.422-3.543-1.422 3.539z" fill="#fff" stroke="#fbb03b" stroke-linecap="round" stroke-linejoin="round" stroke-width="1.001"/><path fill="none" stroke="#fbb03b" stroke-miterlimit="10" stroke-width="2.835" d="M5.411 68.088h52.322v5.413H5.411z"/></svg>