<svg xmlns="http://www.w3.org/2000/svg" width="246.748" height="230.168" viewBox="0 0 246.748 230.168"><g transform="translate(-420.676 -206.032)"><g transform="translate(421.239 293.89)"><path d="M662.945,337.1c5.257,3.035,5.285,7.994.07,11.024L553.965,411.5c-5.213,3.03-13.776,3.03-19.032,0L425.177,348.128c-5.248-3.03-5.277-7.989-.062-11.02l109.05-63.372c5.214-3.031,13.776-3.031,19.024,0Z" transform="translate(-421.223 -271.462)" fill="#f2f2f2"/></g><path d="M663.031,303.868l-109.05,63.373c-5.214,3.03-13.776,3.03-19.032,0L425.193,303.87c-2.641-1.524-3.961-3.539-3.956-5.549l-.062,21.934c-.005,2.01,1.313,4.024,3.954,5.548l109.755,63.368c5.258,3.035,13.82,3.035,19.034,0L662.969,325.8c2.59-1.506,3.887-3.486,3.892-5.47l.062-21.934C666.918,300.384,665.621,302.364,663.031,303.868Z" transform="translate(0 31.706)" fill="#f2f2f2" stroke="#fbb03b" stroke-miterlimit="10" stroke-width="1"/><g transform="translate(421.239 258.909)"><path d="M662.945,311.1c5.257,3.035,5.285,7.994.07,11.024L553.965,385.5c-5.213,3.03-13.776,3.03-19.032,0L425.177,322.128c-5.248-3.03-5.277-7.989-.062-11.02l109.05-63.372c5.214-3.031,13.776-3.031,19.024,0Z" transform="translate(-421.223 -245.462)" fill="#fff" stroke="#fbb03b" stroke-miterlimit="10" stroke-width="1"/></g><path d="M476.817,307.49l-5.867,4.191a2.891,2.891,0,0,0,.171,4.817l36.536,22.393a2.889,2.889,0,0,0,2.932.052l78.621-44.383a2.89,2.89,0,0,0,.623-4.561h0Z" transform="translate(16.775 28.831)" fill="#f2f2f2"/><g transform="translate(488.178 206.532)"><g transform="translate(51.695 74.084)"><path d="M550.369,314.961,509.483,291.2l-.084-29.6,40.886,23.76Z" transform="translate(-509.399 -261.596)" fill="#f2f2f2" stroke="#fbb03b" stroke-linecap="round" stroke-linejoin="round" stroke-width="1.001"/></g><g transform="translate(51.695 59.209)"><path d="M550.286,289.175,509.4,265.415l25.764-14.875,40.886,23.76Z" transform="translate(-509.399 -250.54)" fill="#f2f2f2" stroke="#fbb03b" stroke-linecap="round" stroke-linejoin="round" stroke-width="1.001"/></g><g transform="translate(92.582 82.97)"><path d="M565.552,268.2l.084,29.6L539.872,312.68l-.084-29.6Z" transform="translate(-539.788 -268.2)" fill="#fff" stroke="#fbb03b" stroke-linecap="round" stroke-linejoin="round" stroke-width="1.001"/></g><g transform="translate(0.168 103.833)"><path d="M512.071,337.073l-40.886-23.76-.084-29.6,40.886,23.76Z" transform="translate(-471.101 -283.708)" fill="#f2f2f2" stroke="#fbb03b" stroke-linecap="round" stroke-linejoin="round" stroke-width="1.001"/></g><path d="M522.46,217.588l-25.68,44.479L471.1,306.547l40.886,23.76,25.68-44.479,25.68-44.479Z" transform="translate(-470.933 -202.713)" fill="#f2f2f2" stroke="#fbb03b" stroke-linecap="round" stroke-linejoin="round" stroke-width="1.001"/><g transform="translate(51.528)"><path d="M550.161,245.167l-40.886-23.76,25.764-14.875,40.886,23.76Z" transform="translate(-509.275 -206.532)" fill="#f2f2f2" stroke="#fbb03b" stroke-linecap="round" stroke-linejoin="round" stroke-width="1.001"/></g><g transform="translate(41.054 23.76)"><path d="M578.613,224.192l.084,29.6-25.68,44.479-25.68,44.479L501.574,357.63l-.084-29.6,25.68-44.479,25.68-44.479Z" transform="translate(-501.49 -224.192)" fill="#fff" stroke="#fbb03b" stroke-linecap="round" stroke-linejoin="round" stroke-width="1.001"/></g><g transform="translate(0 44.624)"><path d="M511.946,293.065,471.06,269.3l-.084-29.6,40.886,23.76Z" transform="translate(-470.976 -239.7)" fill="#f2f2f2" stroke="#fbb03b" stroke-linecap="round" stroke-linejoin="round" stroke-width="1.001"/></g><g transform="translate(0 29.75)"><path d="M511.862,267.279l-40.886-23.76,25.764-14.875,40.886,23.76Z" transform="translate(-470.976 -228.644)" fill="#f2f2f2" stroke="#fbb03b" stroke-linecap="round" stroke-linejoin="round" stroke-width="1.001"/></g><g transform="translate(40.886 53.51)"><path d="M527.129,246.3l.084,29.6-25.764,14.875-.084-29.6Z" transform="translate(-501.365 -246.304)" fill="#fff" stroke="#fbb03b" stroke-linecap="round" stroke-linejoin="round" stroke-width="1.001"/></g></g></g></svg>