<svg xmlns="http://www.w3.org/2000/svg" width="246.748" height="230.168"><path d="M242.285 153.496c5.257 3.035 5.285 7.994.07 11.024l-109.05 63.376c-5.213 3.03-13.776 3.03-19.032 0L4.517 164.524c-5.248-3.03-5.277-7.989-.062-11.02l109.05-63.372c5.214-3.031 13.776-3.031 19.024 0z" fill="#f2f2f2"/><path d="M242.355 129.542l-109.05 63.373c-5.214 3.03-13.776 3.03-19.032 0L4.517 129.544c-2.641-1.524-3.961-3.539-3.956-5.549l-.062 21.934c-.005 2.01 1.313 4.024 3.954 5.548l109.755 63.368c5.258 3.035 13.82 3.035 19.034 0l109.051-63.371c2.59-1.506 3.887-3.486 3.892-5.47l.062-21.934c-.005 1.988-1.302 3.968-3.892 5.472z" fill="#f2f2f2" stroke="#fbb03b" stroke-miterlimit="10"/><path d="M242.285 118.515c5.257 3.035 5.285 7.994.07 11.024l-109.05 63.376c-5.213 3.03-13.776 3.03-19.032 0L4.517 129.543c-5.248-3.03-5.277-7.989-.062-11.02l109.05-63.372c5.214-3.031 13.776-3.031 19.024 0z" fill="#fff" stroke="#fbb03b" stroke-miterlimit="10"/><path d="M72.916 130.289l-5.867 4.191a2.891 2.891 0 00.171 4.817l36.536 22.393a2.889 2.889 0 002.932.052l78.621-44.383a2.89 2.89 0 00.623-4.561z" fill="#f2f2f2"/><path d="M160.167 127.949l-40.886-23.761-.084-29.6 40.886 23.76zm-.083-29.605l-40.886-23.76 25.764-14.875 40.886 23.76z" fill="#f2f2f2" stroke="#fbb03b" stroke-linecap="round" stroke-linejoin="round" stroke-width="1.001"/><path d="M185.848 83.47l.084 29.6-25.764 14.88-.084-29.6z" fill="#fff" stroke="#fbb03b" stroke-linecap="round" stroke-linejoin="round" stroke-width="1.001"/><path d="M108.64 157.698l-40.886-23.76-.084-29.6 40.886 23.76zm10.389-142.323l-25.68 44.479-25.68 44.48 40.886 23.76 25.68-44.479 25.68-44.479zm40.887 23.76l-40.886-23.76L144.794.5l40.886 23.76z" fill="#f2f2f2" stroke="#fbb03b" stroke-linecap="round" stroke-linejoin="round" stroke-width="1.001"/><path d="M185.679 24.26l.084 29.6-25.68 44.479-25.68 44.479-25.763 14.88-.084-29.6 25.68-44.479 25.68-44.479z" fill="#fff" stroke="#fbb03b" stroke-linecap="round" stroke-linejoin="round" stroke-width="1.001"/><path d="M108.472 98.489L67.586 74.724l-.084-29.6 40.886 23.76z" fill="#f2f2f2" stroke="#fbb03b" stroke-linecap="round" stroke-linejoin="round" stroke-width="1.001"/><path d="M108.388 68.885l-40.886-23.76L93.266 30.25l40.886 23.76z" fill="#f2f2f2" stroke="#fbb03b" stroke-linecap="round" stroke-linejoin="round" stroke-width="1.001"/><path d="M134.152 54.006l.084 29.6-25.764 14.875-.084-29.6z" fill="#fff" stroke="#fbb03b" stroke-linecap="round" stroke-linejoin="round" stroke-width="1.001"/></svg>