<svg xmlns="http://www.w3.org/2000/svg" width="146.597" height="159.472" viewBox="0 0 146.597 159.472">
  <g id="Group_205" data-name="Group 205" transform="translate(0 0.528)">
    <path id="Path_774" data-name="Path 774" d="M756.716,179.74l-1.483,1.038a5.446,5.446,0,0,0,.388,9.17l38.931,26.218a5.446,5.446,0,0,0,5.921-.294l74.785-47.13c4.652-3.358,1.617-8.8-4.048-7.894L758.977,178.824A5.463,5.463,0,0,0,756.716,179.74Z" transform="translate(-752.911 -57.959)" fill="#f2f2f2"/>
    <path id="Path_775" data-name="Path 775" d="M889.688,52.918c-1.225-.713-2.922-.617-4.785.458L816.887,92.645a14.847,14.847,0,0,0-6.711,11.624l.221,78.149c.007,2.119.76,3.612,1.972,4.315l10.035,5.832c-1.211-.7-1.965-2.2-1.971-4.315l-.221-78.149a14.846,14.846,0,0,1,6.711-11.624l68.016-39.269c1.863-1.075,3.559-1.171,4.785-.458Z" transform="translate(-755.819 -52.46)" fill="#f2f2f2" stroke="#fbb03b" stroke-miterlimit="10" stroke-width="1"/>
    <g id="Group_133" data-name="Group 133" transform="translate(64.392 5.832)">
      <path id="Path_776" data-name="Path 776" d="M895.475,59.52c3.7-2.138,6.743-.405,6.756,3.849l.221,78.149a14.849,14.849,0,0,1-6.711,11.632l-68.016,39.269c-3.7,2.138-6.743.405-6.756-3.857l-.221-78.149a14.846,14.846,0,0,1,6.711-11.624Z" transform="translate(-820.748 -58.604)" fill="#fff" stroke="#fbb03b" stroke-linecap="round" stroke-linejoin="round" stroke-width="1.001"/>
    </g>
    <g id="Group_134" data-name="Group 134" transform="translate(4.923 87.562)">
      <path id="Path_777" data-name="Path 777" d="M758.1,163.287l13.38-7.776,22.315-10.8-13.38,7.776Z" transform="translate(-758.097 -144.706)" fill="#f2f2f2"/>
    </g>
    <g id="Group_135" data-name="Group 135" transform="translate(27.238 87.039)">
      <path id="Path_778" data-name="Path 778" d="M795.961,144.155l-13.38,7.775q-.457.266-.975.524l13.38-7.776Q795.5,144.42,795.961,144.155Z" transform="translate(-781.606 -144.155)" fill="#f2f2f2"/>
    </g>
    <g id="Group_136" data-name="Group 136" transform="translate(17.062 70.926)">
      <path id="Path_779" data-name="Path 779" d="M772.825,134.956l13.38-7.776a5.322,5.322,0,0,0-1.939,2.057l-13.38,7.775A5.31,5.31,0,0,1,772.825,134.956Z" transform="translate(-770.886 -127.18)" fill="#f2f2f2"/>
    </g>
    <g id="Group_137" data-name="Group 137" transform="translate(54.213 123.012)">
      <path id="Path_780" data-name="Path 780" d="M810.077,189.828l13.38-7.776-.052,18.489-13.38,7.776Z" transform="translate(-810.024 -182.052)" fill="#f2f2f2" stroke="#fbb03b" stroke-linecap="round" stroke-linejoin="round" stroke-width="1.001"/>
    </g>
    <g id="Group_138" data-name="Group 138" transform="translate(33.515 111.031)">
      <path id="Path_781" data-name="Path 781" d="M788.219,177.206l13.38-7.776,20.751,11.981-13.38,7.776Z" transform="translate(-788.219 -169.431)" fill="#f2f2f2" stroke="#fbb03b" stroke-linecap="round" stroke-linejoin="round" stroke-width="1.001"/>
    </g>
    <path id="Path_782" data-name="Path 782" d="M816.421,132.091a48,48,0,0,0-8.777-12.859,56.177,56.177,0,0,0-12.92-10.194q-9.581-5.532-16.369-5.042a13.558,13.558,0,0,0-5.943,1.731l-13.38,7.776a13.546,13.546,0,0,1,5.943-1.731q6.786-.488,16.369,5.042a56.2,56.2,0,0,1,12.92,10.193,48.015,48.015,0,0,1,8.778,12.86,31.958,31.958,0,0,1,3.131,13.449,19.776,19.776,0,0,1-2.189,9.723A15.043,15.043,0,0,1,798.2,168.4l13.38-7.776a15.04,15.04,0,0,0,5.778-5.358,19.775,19.775,0,0,0,2.189-9.722A31.959,31.959,0,0,0,816.421,132.091Z" transform="translate(-753.222 -55.075)" fill="#f2f2f2" stroke="#fbb03b" stroke-linecap="round" stroke-linejoin="round" stroke-width="1.001"/>
    <g id="Group_139" data-name="Group 139" transform="translate(1.434 56.657)">
      <path id="Path_783" data-name="Path 783" d="M781.109,117.23a56.2,56.2,0,0,1,12.92,10.193,48.014,48.014,0,0,1,8.777,12.86,31.955,31.955,0,0,1,3.131,13.449,19.776,19.776,0,0,1-2.189,9.723q-2.169,3.854-8.426,6.721L786.5,174.3l20.751,11.981-.053,18.489-49.332-28.481.042-14.652,22.315-10.8a8.96,8.96,0,0,0,3.881-3.123,7.332,7.332,0,0,0,.982-3.785,8.927,8.927,0,0,0-1.528-4.977,12.824,12.824,0,0,0-4.437-4.034,8.519,8.519,0,0,0-5.278-1.324,4.88,4.88,0,0,0-3.8,2.664l-15.628-18.028a12.615,12.615,0,0,1,10.318-6.033Q771.525,111.7,781.109,117.23Z" transform="translate(-754.422 -112.148)" fill="#fff" stroke="#fbb03b" stroke-linecap="round" stroke-linejoin="round" stroke-width="1.001"/>
    </g>
    <g id="Group_142" data-name="Group 142" transform="translate(94.078 51.063)">
      <g id="Group_140" data-name="Group 140" transform="translate(7.469 21.542)">
        <path id="Path_784" data-name="Path 784" d="M866.645,130.752c1.238-.715,2.25-.138,2.253,1.291a4.942,4.942,0,0,1-2.238,3.878c-1.243.718-2.25.139-2.254-1.284a3.849,3.849,0,0,1,.216-1.242l-4.513-2.566c-.289-.171-.29-.717,0-1.22a1.535,1.535,0,0,1,.53-.555.545.545,0,0,1,.532-.058l4.508,2.574A3.935,3.935,0,0,1,866.645,130.752Zm.01,3.446a1.648,1.648,0,0,0,.745-1.289c0-.478-.339-.671-.75-.434a1.643,1.643,0,0,0-.75,1.3c0,.472.339.664.755.423" transform="translate(-859.891 -128.949)" fill="#fbb03b"/>
      </g>
      <g id="Group_141" data-name="Group 141">
        <path id="Path_785" data-name="Path 785" d="M876.8,115.143c2.276,1.584,3.669,4.625,3.681,8.831C880.5,133,874.153,144,866.3,148.532s-14.252.9-14.277-8.13c-.025-8.742,5.926-19.333,13.432-24.114l-.015-5.181-3.746,2.162c-.411.237-.748.045-.749-.434a1.644,1.644,0,0,1,.744-1.289l8.991-5.191c.41-.236.748-.045.749.427a1.647,1.647,0,0,1-.744,1.3l-3.746,2.163.014,5.181c3.368-1.742,6.423-1.959,8.778-.887l1.931-3.337a1.52,1.52,0,0,1,.53-.559.521.521,0,0,1,.527-.051c.294.162.3.707,0,1.214Zm-10.5,31.666c7.027-4.057,12.712-13.9,12.689-21.973-.011-4.041-1.447-6.879-3.759-8.2s-5.5-1.11-9.014.918c-7.032,4.06-12.712,13.9-12.689,21.978s5.74,11.333,12.773,7.273" transform="translate(-852.022 -106.254)" fill="#fbb03b"/>
      </g>
    </g>
  </g>
</svg>
