<svg xmlns="http://www.w3.org/2000/svg" width="142.065" height="151.474" viewBox="0 0 142.065 151.474">
  <g id="Group_204" data-name="Group 204" transform="translate(0.5 0.53)">
    <path id="Path_786" data-name="Path 786" d="M560.349,191.53l9.973,6.577a7.02,7.02,0,0,0,7.438.184l15.311-9.048a7.022,7.022,0,0,1,7.131-.007l58.47,34.758a7.024,7.024,0,0,0,7.544-.27L680.182,219a7.021,7.021,0,0,0-.754-12.017l-75.573-39.149a7.068,7.068,0,0,0-1.126-.465l-6.607-2.074a7.025,7.025,0,0,0-5.031.318l-29.8,13.674A7.022,7.022,0,0,0,560.349,191.53Z" transform="translate(-550.999 -74.02)" fill="#f2f2f2"/>
    <path id="Path_787" data-name="Path 787" d="M683.571,117.69,614.185,77.631c-2.021-1.168-3.86-1.272-5.19-.5L598.11,83.458c1.33-.773,3.169-.669,5.19.5l69.386,40.06a16.107,16.107,0,0,1,7.28,12.609l-.227,79.738c-.006,2.293-.824,3.91-2.136,4.673l10.885-6.326c1.313-.763,2.13-2.381,2.136-4.673l.227-79.738A16.109,16.109,0,0,0,683.571,117.69Z" transform="translate(-549.788 -76.636)" fill="#f2f2f2" stroke="#fbb03b" stroke-miterlimit="10" stroke-width="1"/>
    <g id="Group_144" data-name="Group 144" transform="translate(45.959 6.326)">
      <path id="Path_788" data-name="Path 788" d="M672.754,123.834a16.108,16.108,0,0,1,7.28,12.609l-.227,79.738c-.013,4.615-3.31,6.495-7.327,4.175L603.1,180.3a16.109,16.109,0,0,1-7.28-12.609l.226-79.738c.013-4.616,3.31-6.495,7.327-4.176Z" transform="translate(-595.815 -82.78)" fill="#fff" stroke="#fbb03b" stroke-linecap="round" stroke-linejoin="round" stroke-width="1.001"/>
    </g>
    <g id="Group_145" data-name="Group 145" transform="translate(11.5 48.899)">
      <path id="Path_789" data-name="Path 789" d="M580.651,191.891l-18.142-10.543-.162-57.22,18.142,10.543Z" transform="translate(-562.347 -124.128)" fill="#f2f2f2" stroke="#fbb03b" stroke-linecap="round" stroke-linejoin="round" stroke-width="1.001"/>
    </g>
    <g id="Group_146" data-name="Group 146" transform="translate(0 35.995)">
      <path id="Path_790" data-name="Path 790" d="M569.375,141.65l-18.142-10.543-.055-19.511,18.142,10.543Z" transform="translate(-551.178 -111.596)" fill="#f2f2f2" stroke="#fbb03b" stroke-linecap="round" stroke-linejoin="round" stroke-width="1.001"/>
    </g>
    <g id="Group_147" data-name="Group 147" transform="translate(0 16.392)">
      <path id="Path_791" data-name="Path 791" d="M569.319,122.7,551.178,112.16l33.953-19.6L603.273,103.1Z" transform="translate(-551.178 -92.557)" fill="#f2f2f2" stroke="#fbb03b" stroke-linecap="round" stroke-linejoin="round" stroke-width="1.001"/>
    </g>
    <g id="Group_148" data-name="Group 148" transform="translate(18.142 26.935)">
      <path id="Path_792" data-name="Path 792" d="M602.751,102.8l.217,76.731-22.509,13L580.3,135.3l-11.445,6.608L568.8,122.4Z" transform="translate(-568.797 -102.796)" fill="#fff" stroke="#fbb03b" stroke-linecap="round" stroke-linejoin="round" stroke-width="1.001"/>
    </g>
    <g id="Group_163" data-name="Group 163" transform="translate(61.835 38.514)">
      <g id="Group_149" data-name="Group 149" transform="translate(0.052)">
        <path id="Path_793" data-name="Path 793" d="M660.589,141.493a4.969,4.969,0,0,1,2.254,3.9l-.027,9.382c0,1.428-1.019,2.007-2.268,1.285l-47.009-27.141a4.963,4.963,0,0,1-2.254-3.9l.027-9.382c0-1.435,1.019-2.014,2.268-1.293Zm1.5,12.865.026-9.382a3.366,3.366,0,0,0-1.526-2.644l-47.009-27.141c-.841-.486-1.534-.1-1.537.875l-.026,9.382a3.367,3.367,0,0,0,1.526,2.637l47.009,27.141c.841.486,1.534.1,1.537-.868" transform="translate(-611.285 -114.042)" fill="#fbb03b"/>
      </g>
      <g id="Group_150" data-name="Group 150" transform="translate(40.969 65.443)">
        <path id="Path_794" data-name="Path 794" d="M655.412,178.973a1.482,1.482,0,0,1,.516.542c.281.5.28,1.024,0,1.186l-2.2,1.259a.535.535,0,0,1-.519-.056,1.48,1.48,0,0,1-.513-.541l-1.461-2.531c-.282-.488-.28-1.017,0-1.186a.537.537,0,0,1,.52.056,1.48,1.48,0,0,1,.513.541l.943,1.634,1.681-.959A.523.523,0,0,1,655.412,178.973Z" transform="translate(-651.025 -177.602)" fill="#fbb03b"/>
      </g>
      <g id="Group_151" data-name="Group 151" transform="translate(35.642 56.644)">
        <path id="Path_795" data-name="Path 795" d="M660.224,176.72a3.078,3.078,0,0,1,1.4,2.41l-.032,11.368c0,.883-.636,1.237-1.405.793l-12.943-7.473a3.061,3.061,0,0,1-1.389-2.406l.032-11.368c0-.884.629-1.241,1.4-.8Zm.627,13.353.033-11.368a1.455,1.455,0,0,0-.662-1.147l-12.943-7.473c-.369-.212-.665-.043-.666.38l-.033,11.368a1.457,1.457,0,0,0,.662,1.147l12.944,7.473c.368.212.664.043.665-.38" transform="translate(-645.851 -169.057)" fill="#fbb03b"/>
      </g>
      <g id="Group_152" data-name="Group 152" transform="translate(30.31 37.414)">
        <path id="Path_796" data-name="Path 796" d="M641.437,150.8l-.029,10.069-.736-.425.029-10.069Z" transform="translate(-640.672 -150.38)" fill="#fbb03b"/>
      </g>
      <g id="Group_153" data-name="Group 153" transform="translate(0 18.658)">
        <path id="Path_797" data-name="Path 797" d="M660.538,159.614a4.967,4.967,0,0,1,2.254,3.9l-.027,9.382c0,1.435-1.019,2.014-2.269,1.292l-47.008-27.14a4.969,4.969,0,0,1-2.254-3.9l.026-9.382c0-1.428,1.02-2.007,2.269-1.286Zm1.5,12.858.027-9.382a3.368,3.368,0,0,0-1.527-2.637l-47.008-27.141c-.842-.486-1.534-.1-1.537.868l-.027,9.382a3.372,3.372,0,0,0,1.527,2.644L660.5,173.347c.841.486,1.534.1,1.536-.875" transform="translate(-611.234 -132.163)" fill="#fbb03b"/>
      </g>
      <g id="Group_154" data-name="Group 154" transform="translate(5.91 8.373)">
        <path id="Path_798" data-name="Path 798" d="M618.808,122.424a4.019,4.019,0,0,1,1.821,3.156c0,1.155-.828,1.618-1.834,1.037a4.012,4.012,0,0,1-1.821-3.148C616.977,122.306,617.8,121.843,618.808,122.424Z" transform="translate(-616.974 -122.174)" fill="#fbb03b"/>
      </g>
      <g id="Group_155" data-name="Group 155" transform="translate(12.3 11.987)">
        <path id="Path_799" data-name="Path 799" d="M625.014,125.934a4,4,0,0,1,1.821,3.155c0,1.156-.822,1.622-1.834,1.038a4.014,4.014,0,0,1-1.821-3.148C623.183,125.816,624.008,125.353,625.014,125.934Z" transform="translate(-623.18 -125.684)" fill="#fbb03b"/>
      </g>
      <g id="Group_156" data-name="Group 156" transform="translate(18.696 15.677)">
        <path id="Path_800" data-name="Path 800" d="M631.22,129.517a4,4,0,0,1,1.821,3.155c0,1.156-.822,1.622-1.834,1.038a4,4,0,0,1-1.815-3.144C629.4,129.4,630.214,128.936,631.22,129.517Z" transform="translate(-629.392 -129.268)" fill="#fbb03b"/>
      </g>
      <g id="Group_157" data-name="Group 157" transform="translate(25.086 19.367)">
        <path id="Path_801" data-name="Path 801" d="M637.432,133.1a4,4,0,0,1,1.815,3.151c0,1.156-.822,1.622-1.828,1.041a4,4,0,0,1-1.821-3.148C635.6,132.986,636.42,132.519,637.432,133.1Z" transform="translate(-635.598 -132.852)" fill="#fbb03b"/>
      </g>
      <g id="Group_158" data-name="Group 158" transform="translate(31.475 23.056)">
        <path id="Path_802" data-name="Path 802" d="M643.638,136.687a4.015,4.015,0,0,1,1.821,3.155c0,1.155-.828,1.618-1.834,1.037a4,4,0,0,1-1.821-3.148C641.807,136.569,642.626,136.1,643.638,136.687Z" transform="translate(-641.804 -136.435)" fill="#fbb03b"/>
      </g>
      <g id="Group_159" data-name="Group 159" transform="translate(5.856 27.03)">
        <path id="Path_803" data-name="Path 803" d="M618.756,140.545a4.011,4.011,0,0,1,1.821,3.148c0,1.163-.827,1.626-1.833,1.045a4.016,4.016,0,0,1-1.822-3.155C616.926,140.427,617.75,139.964,618.756,140.545Z" transform="translate(-616.922 -140.295)" fill="#fbb03b"/>
      </g>
      <g id="Group_160" data-name="Group 160" transform="translate(12.246 30.719)">
        <path id="Path_804" data-name="Path 804" d="M624.962,144.128a4,4,0,0,1,1.821,3.148c0,1.163-.821,1.63-1.833,1.045a4.016,4.016,0,0,1-1.822-3.155C623.132,144.01,623.956,143.548,624.962,144.128Z" transform="translate(-623.128 -143.878)" fill="#fbb03b"/>
      </g>
      <g id="Group_161" data-name="Group 161" transform="translate(18.643 34.409)">
        <path id="Path_805" data-name="Path 805" d="M631.168,147.711a4,4,0,0,1,1.821,3.148c0,1.163-.821,1.63-1.834,1.045a4,4,0,0,1-1.814-3.152C629.344,147.6,630.162,147.13,631.168,147.711Z" transform="translate(-629.341 -147.461)" fill="#fbb03b"/>
      </g>
      <g id="Group_162" data-name="Group 162" transform="translate(25.033 38.1)">
        <path id="Path_806" data-name="Path 806" d="M637.38,151.3a4,4,0,0,1,1.815,3.143c0,1.163-.821,1.63-1.827,1.049a4,4,0,0,1-1.821-3.156C635.55,151.18,636.368,150.713,637.38,151.3Z" transform="translate(-635.547 -151.046)" fill="#fbb03b"/>
      </g>
    </g>
  </g>
</svg>
