<svg xmlns="http://www.w3.org/2000/svg" width="142.065" height="151.474"><g data-name="Group 204"><path data-name="Path 786" d="M9.85 118.04l9.973 6.577a7.02 7.02 0 007.438.184l15.311-9.048a7.022 7.022 0 017.131-.007l58.47 34.758a7.024 7.024 0 007.544-.27l13.966-4.724a7.021 7.021 0 00-.754-12.017L53.356 94.344a7.068 7.068 0 00-1.126-.465l-6.607-2.074a7.025 7.025 0 00-5.031.318l-29.8 13.674a7.022 7.022 0 00-.942 12.243z" fill="#f2f2f2"/><path data-name="Path 787" d="M134.283 41.584L64.897 1.525c-2.021-1.168-3.86-1.272-5.19-.5L48.822 7.352c1.33-.773 3.169-.669 5.19.5l69.386 40.06a16.107 16.107 0 017.28 12.609l-.227 79.738c-.006 2.293-.824 3.91-2.136 4.673l10.885-6.326c1.313-.763 2.13-2.381 2.136-4.673l.227-79.738a16.109 16.109 0 00-7.28-12.611z" fill="#f2f2f2" stroke="#fbb03b" stroke-miterlimit="10"/><g data-name="Group 144"><path data-name="Path 788" d="M123.398 47.91a16.108 16.108 0 017.28 12.609l-.227 79.738c-.013 4.615-3.31 6.495-7.327 4.175l-69.38-40.056a16.109 16.109 0 01-7.28-12.609l.226-79.738c.013-4.616 3.31-6.495 7.327-4.176z" fill="#fff" stroke="#fbb03b" stroke-linecap="round" stroke-linejoin="round" stroke-width="1.001"/></g><g data-name="Group 145"><path data-name="Path 789" d="M30.304 117.192l-18.142-10.543L12 49.429l18.142 10.543z" fill="#f2f2f2" stroke="#fbb03b" stroke-linecap="round" stroke-linejoin="round" stroke-width="1.001"/></g><g data-name="Group 146"><path data-name="Path 790" d="M18.697 66.579L.555 56.036.5 36.525l18.142 10.543z" fill="#f2f2f2" stroke="#fbb03b" stroke-linecap="round" stroke-linejoin="round" stroke-width="1.001"/></g><g data-name="Group 147"><path data-name="Path 791" d="M18.641 47.065L.5 36.525l33.953-19.6 18.142 10.54z" fill="#f2f2f2" stroke="#fbb03b" stroke-linecap="round" stroke-linejoin="round" stroke-width="1.001"/></g><g data-name="Group 148"><path data-name="Path 792" d="M52.596 27.469l.217 76.731-22.509 13-.159-57.231L18.7 66.577l-.055-19.508z" fill="#fff" stroke="#fbb03b" stroke-linecap="round" stroke-linejoin="round" stroke-width="1.001"/></g><g data-name="Group 163"><g data-name="Group 149"><path data-name="Path 793" d="M111.691 66.495a4.969 4.969 0 012.254 3.9l-.027 9.382c0 1.428-1.019 2.007-2.268 1.285L64.641 53.921a4.963 4.963 0 01-2.254-3.9l.027-9.382c0-1.435 1.019-2.014 2.268-1.293zm1.5 12.865l.026-9.382a3.366 3.366 0 00-1.526-2.644L64.682 40.193c-.841-.486-1.534-.1-1.537.875l-.026 9.382a3.367 3.367 0 001.526 2.637l47.009 27.141c.841.486 1.534.1 1.537-.868" fill="#fbb03b"/></g><g data-name="Group 150"><path data-name="Path 794" d="M107.691 105.858a1.482 1.482 0 01.516.542c.281.5.28 1.024 0 1.186l-2.2 1.259a.535.535 0 01-.519-.056 1.48 1.48 0 01-.513-.541l-1.461-2.531c-.282-.488-.28-1.017 0-1.186a.537.537 0 01.52.056 1.48 1.48 0 01.513.541l.943 1.634 1.681-.959a.523.523 0 01.52.055z" fill="#fbb03b"/></g><g data-name="Group 151"><path data-name="Path 795" d="M112.35 103.351a3.078 3.078 0 011.4 2.41l-.032 11.368c0 .883-.636 1.237-1.405.793l-12.943-7.473a3.061 3.061 0 01-1.389-2.406l.032-11.368c0-.884.629-1.241 1.4-.8zm.627 13.353l.033-11.368a1.455 1.455 0 00-.662-1.147l-12.943-7.473c-.369-.212-.665-.043-.666.38l-.033 11.368a1.457 1.457 0 00.662 1.147l12.944 7.473c.368.212.664.043.665-.38" fill="#fbb03b"/></g><g data-name="Group 152"><path data-name="Path 796" d="M93.41 76.878l-.029 10.069-.736-.425.029-10.069z" fill="#fbb03b"/></g><g data-name="Group 153"><path data-name="Path 797" d="M111.639 85.153a4.967 4.967 0 012.254 3.9l-.027 9.382c0 1.435-1.019 2.014-2.269 1.292l-47.008-27.14a4.969 4.969 0 01-2.254-3.9l.026-9.382c0-1.428 1.02-2.007 2.269-1.286zm1.5 12.858l.027-9.382a3.368 3.368 0 00-1.527-2.637L64.631 58.851c-.842-.486-1.534-.1-1.537.868l-.027 9.382a3.372 3.372 0 001.527 2.644l47.007 27.141c.841.486 1.534.1 1.536-.875" fill="#fbb03b"/></g><g data-name="Group 154"><path data-name="Path 798" d="M70.079 47.667a4.019 4.019 0 011.821 3.156c0 1.155-.828 1.618-1.834 1.037a4.012 4.012 0 01-1.821-3.148c.003-1.163.826-1.626 1.834-1.045z" fill="#fbb03b"/></g><g data-name="Group 155"><path data-name="Path 799" d="M76.469 51.281a4 4 0 011.821 3.155c0 1.156-.822 1.622-1.834 1.038a4.014 4.014 0 01-1.821-3.148c.003-1.163.828-1.626 1.834-1.045z" fill="#fbb03b"/></g><g data-name="Group 156"><path data-name="Path 800" d="M82.859 54.97a4 4 0 011.821 3.155c0 1.156-.822 1.622-1.834 1.038a4 4 0 01-1.815-3.144c.008-1.166.822-1.63 1.828-1.049z" fill="#fbb03b"/></g><g data-name="Group 157"><path data-name="Path 801" d="M89.255 58.659a4 4 0 011.815 3.151c0 1.156-.822 1.622-1.828 1.041a4 4 0 01-1.821-3.148c.002-1.158.822-1.625 1.834-1.044z" fill="#fbb03b"/></g><g data-name="Group 158"><path data-name="Path 802" d="M95.644 62.352a4.015 4.015 0 011.821 3.155c0 1.155-.828 1.618-1.834 1.037a4 4 0 01-1.821-3.148c.003-1.162.822-1.631 1.834-1.044z" fill="#fbb03b"/></g><g data-name="Group 159"><path data-name="Path 803" d="M70.025 66.324a4.011 4.011 0 011.821 3.148c0 1.163-.827 1.626-1.833 1.045a4.016 4.016 0 01-1.822-3.155c.004-1.156.828-1.619 1.834-1.038z" fill="#fbb03b"/></g><g data-name="Group 160"><path data-name="Path 804" d="M76.415 70.013a4 4 0 011.821 3.148c0 1.163-.821 1.63-1.833 1.045a4.016 4.016 0 01-1.822-3.155c.004-1.156.828-1.618 1.834-1.038z" fill="#fbb03b"/></g><g data-name="Group 161"><path data-name="Path 805" d="M82.805 73.703a4 4 0 011.821 3.148c0 1.163-.821 1.63-1.834 1.045a4 4 0 01-1.814-3.152c.003-1.152.821-1.622 1.827-1.041z" fill="#fbb03b"/></g><g data-name="Group 162"><path data-name="Path 806" d="M89.201 77.398a4 4 0 011.815 3.143c0 1.163-.821 1.63-1.827 1.049a4 4 0 01-1.821-3.156c.003-1.156.821-1.623 1.833-1.036z" fill="#fbb03b"/></g></g></g></svg>