<svg xmlns="http://www.w3.org/2000/svg" width="144.827" height="143.77"><g data-name="Group 206"><path data-name="Path 807" d="M2.918 89.722a7.775 7.775 0 00.294 12.367l26.959 19.545a7.777 7.777 0 008.385.477l19.852-11.2a7.777 7.777 0 017.906.155l51.1 31.547a7.777 7.777 0 008.272-.065l4.6-2.939a7.776 7.776 0 000-13.1L64.902 84.761a7.782 7.782 0 00-4.841-1.195L7.126 88.053a7.775 7.775 0 00-4.208 1.669z" fill="#f2f2f2"/><path data-name="Path 808" d="M137.386 39.667L71.238 1.477C69.311.364 67.558.265 66.29 1.002L55.913 7.033c1.268-.737 3.021-.638 4.948.474l66.148 38.191a15.356 15.356 0 016.941 12.02l-.216 76.017c-.006 2.186-.785 3.728-2.037 4.455l10.377-6.031c1.251-.727 2.031-2.269 2.037-4.455l.216-76.017a15.358 15.358 0 00-6.941-12.02z" fill="#f2f2f2" stroke="#fbb03b" stroke-miterlimit="10"/><g data-name="Group 165"><path data-name="Path 809" d="M127.009 45.698a15.356 15.356 0 016.941 12.02l-.216 76.017c-.013 4.4-3.156 6.192-6.985 3.98l-66.148-38.19a15.357 15.357 0 01-6.941-12.02l.216-76.017c.013-4.4 3.156-6.192 6.985-3.981z" fill="#fff" stroke="#fbb03b" stroke-linecap="round" stroke-linejoin="round" stroke-width="1.001"/></g><g data-name="Group 174"><g data-name="Group 166"><path data-name="Path 810" d="M80.817 74.179a1.453 1.453 0 01-.662-1.147c0-.425.3-.593.667-.38l7.99 4.613a1.463 1.463 0 01.669 1.15c0 .425-.3.59-.672.377z" fill="#fbb03b"/></g><g data-name="Group 167"><path data-name="Path 811" d="M102.187 66.586a7.314 7.314 0 013.317 5.745l-.052 18.37c-.006 2.117-1.5 2.97-3.338 1.91L78.136 78.767a7.306 7.306 0 01-3.317-5.752l.052-18.37c.006-2.11 1.5-2.966 3.338-1.9zm1.937 23.349l.041-14.54-27.976-16.152-.041 14.539a4.394 4.394 0 001.993 3.452l23.977 13.843c1.1.637 2 .125 2.006-1.143m.045-16.073l.007-2.3a4.387 4.387 0 00-1.993-3.444L78.205 54.274c-1.1-.637-2-.132-2.005 1.136l-.007 2.3 27.976 16.153" fill="#fbb03b"/></g><g data-name="Group 168"><path data-name="Path 812" d="M109.817 63.303l.494.855-4.539 2.587-.494-.855z" fill="#fbb03b"/></g><g data-name="Group 169"><path data-name="Path 813" d="M106.385 96.182l5.9 10.221-.49.287-5.9-10.224z" fill="#fbb03b"/></g><g data-name="Group 170"><path data-name="Path 814" d="M113.84 85.942v.8l-4.876-2.815v-.8z" fill="#fbb03b"/></g><g data-name="Group 171"><path data-name="Path 815" d="M70.622 41.078l4.51 7.812-.5.283-4.51-7.819z" fill="#fbb03b"/></g><g data-name="Group 172"><path data-name="Path 816" d="M73.858 77.807l.493.855-5.942 3.379-.487-.851z" fill="#fbb03b"/></g><g data-name="Group 173"><path data-name="Path 817" d="M71.361 61.823v.8l-4.876-2.815v-.8z" fill="#fbb03b"/></g></g><g data-name="Group 181"><g data-name="Group 175"><path data-name="Path 818" d="M48.289 80.219l-13.836 8.04a2.615 2.615 0 01-1.171.324q-2.279.156-6-2a55.14 55.14 0 01-8.682-6.368 69.968 69.968 0 01-8.4-8.831l13.836-8.041a69.956 69.956 0 008.4 8.831 55.132 55.132 0 008.683 6.368q3.722 2.15 6 2a2.641 2.641 0 001.17-.323z" fill="#f2f2f2" stroke="#fbb03b" stroke-linecap="round" stroke-linejoin="round" stroke-width="1.001"/></g><g data-name="Group 176"><path data-name="Path 819" d="M65.281 102.738l-13.836 8.041a9.118 9.118 0 002.508-2.146q3.146-3.886 3.169-10.469a33.8 33.8 0 00-3.917-15.5 46.352 46.352 0 00-11.3-14.114l13.836-8.04a46.327 46.327 0 0111.3 14.114 33.805 33.805 0 013.917 15.5q-.019 6.578-3.168 10.469a9.121 9.121 0 01-2.509 2.145z" fill="#f2f2f2" stroke="#fbb03b" stroke-linecap="round" stroke-linejoin="round" stroke-width="1.001"/></g><g data-name="Group 177"><path data-name="Path 820" d="M53.766 61.583l13.836-8.041-11.865 6.963-13.836 8.041z" fill="#f2f2f2"/></g><g data-name="Group 178"><path data-name="Path 821" d="M53.809 46.431l13.836-8.041-.043 15.151-13.836 8.041z" fill="#f2f2f2" stroke="#fbb03b" stroke-linecap="round" stroke-linejoin="round" stroke-width="1.001"/></g><g data-name="Group 179"><path data-name="Path 822" d="M6.334 19.022l13.836-8.041 47.472 27.408-13.836 8.041z" fill="#f2f2f2" stroke="#fbb03b" stroke-linecap="round" stroke-linejoin="round" stroke-width="1.001"/></g><g data-name="Group 180"><path data-name="Path 823" d="M53.809 46.43l-.042 15.151-11.868 6.964a46.355 46.355 0 0111.3 14.114 33.8 33.8 0 013.917 15.5q-.019 6.578-3.169 10.469t-9.716 3.652q-6.552-.224-16.285-5.846a97.628 97.628 0 01-13.412-9.417A84.444 84.444 0 012.866 85.361l7.327-13.982a69.942 69.942 0 008.4 8.831 55.148 55.148 0 008.682 6.368q3.722 2.15 6 2c1.52-.1 2.282-1.055 2.287-2.863q.013-5.022-7.531-9.375l-8.46-4.885.043-15.152 9.4-5.558L6.278 37.618l.053-18.6z" fill="#fff" stroke="#fbb03b" stroke-linecap="round" stroke-linejoin="round" stroke-width="1.001"/></g></g></g></svg>