<svg xmlns="http://www.w3.org/2000/svg" width="144.827" height="143.77" viewBox="0 0 144.827 143.77">
  <g id="Group_206" data-name="Group 206" transform="translate(0 0.529)">
    <path id="Path_807" data-name="Path 807" d="M966.065,169.388h0a7.775,7.775,0,0,0,.294,12.367L993.318,201.3a7.777,7.777,0,0,0,8.385.477l19.852-11.2a7.777,7.777,0,0,1,7.906.155l51.1,31.547a7.777,7.777,0,0,0,8.272-.065l4.6-2.939a7.776,7.776,0,0,0,0-13.1l-65.384-41.748a7.782,7.782,0,0,0-4.841-1.195l-52.935,4.487A7.775,7.775,0,0,0,966.065,169.388Z" transform="translate(-963.147 -80.195)" fill="#f2f2f2"/>
    <path id="Path_808" data-name="Path 808" d="M1101.583,117.774l-66.148-38.19c-1.927-1.113-3.68-1.212-4.948-.475L1020.11,85.14c1.268-.737,3.021-.638,4.948.474l66.148,38.191a15.356,15.356,0,0,1,6.941,12.02l-.216,76.017c-.006,2.186-.785,3.728-2.037,4.455l10.377-6.031c1.251-.727,2.031-2.269,2.037-4.455l.216-76.017A15.358,15.358,0,0,0,1101.583,117.774Z" transform="translate(-964.197 -78.636)" fill="#f2f2f2" stroke="#fbb03b" stroke-miterlimit="10" stroke-width="1"/>
    <g id="Group_165" data-name="Group 165" transform="translate(53.66 6.031)">
      <path id="Path_809" data-name="Path 809" d="M1091.164,123.918a15.356,15.356,0,0,1,6.941,12.02l-.216,76.017c-.013,4.4-3.156,6.192-6.985,3.98l-66.148-38.19a15.357,15.357,0,0,1-6.941-12.02l.216-76.017c.013-4.4,3.156-6.192,6.985-3.981Z" transform="translate(-1017.815 -84.78)" fill="#fff" stroke="#fbb03b" stroke-linecap="round" stroke-linejoin="round" stroke-width="1.001"/>
    </g>
    <g id="Group_174" data-name="Group 174" transform="translate(66.483 40.549)">
      <g id="Group_166" data-name="Group 166" transform="translate(13.672 31.481)">
        <path id="Path_810" data-name="Path 810" d="M1045.469,153.639a1.453,1.453,0,0,1-.662-1.147c0-.425.3-.593.667-.38l7.99,4.613a1.463,1.463,0,0,1,.669,1.15c0,.425-.3.59-.672.377Z" transform="translate(-1044.807 -152.019)" fill="#fbb03b"/>
      </g>
      <g id="Group_167" data-name="Group 167" transform="translate(8.336 11.208)">
        <path id="Path_811" data-name="Path 811" d="M1066.739,145.666a7.314,7.314,0,0,1,3.317,5.745l-.052,18.37c-.006,2.117-1.5,2.97-3.338,1.91l-23.978-13.844a7.306,7.306,0,0,1-3.317-5.752l.052-18.37c.006-2.11,1.5-2.966,3.338-1.9Zm1.937,23.349.041-14.54-27.976-16.152-.041,14.539a4.394,4.394,0,0,0,1.993,3.452l23.977,13.843c1.1.637,2,.125,2.006-1.143m.045-16.073.007-2.3a4.387,4.387,0,0,0-1.993-3.444l-23.978-13.843c-1.1-.637-2-.132-2.005,1.136l-.007,2.3,27.976,16.153" transform="translate(-1039.371 -131.366)" fill="#fbb03b"/>
      </g>
      <g id="Group_168" data-name="Group 168" transform="translate(38.795 22.225)">
        <path id="Path_812" data-name="Path 812" d="M1074.941,142.589l.494.855-4.539,2.587-.494-.855Z" transform="translate(-1070.402 -142.589)" fill="#fbb03b"/>
      </g>
      <g id="Group_169" data-name="Group 169" transform="translate(39.405 55.104)">
        <path id="Path_813" data-name="Path 813" d="M1071.52,176.085l5.9,10.221-.49.287-5.9-10.224Z" transform="translate(-1071.023 -176.085)" fill="#fbb03b"/>
      </g>
      <g id="Group_170" data-name="Group 170" transform="translate(42.479 42.052)">
        <path id="Path_814" data-name="Path 814" d="M1079.033,165.6l0,.8-4.876-2.815,0-.8Z" transform="translate(-1074.155 -162.788)" fill="#fbb03b"/>
      </g>
      <g id="Group_171" data-name="Group 171" transform="translate(3.643)">
        <path id="Path_815" data-name="Path 815" d="M1035.086,119.947l4.51,7.812-.5.283-4.51-7.819Z" transform="translate(-1034.59 -119.947)" fill="#fbb03b"/>
      </g>
      <g id="Group_172" data-name="Group 172" transform="translate(1.44 36.729)">
        <path id="Path_816" data-name="Path 816" d="M1038.28,157.365l.493.855-5.942,3.379-.487-.851Z" transform="translate(-1032.345 -157.365)" fill="#fbb03b"/>
      </g>
      <g id="Group_173" data-name="Group 173" transform="translate(0 17.93)">
        <path id="Path_817" data-name="Path 817" d="M1035.756,141.029l0,.8-4.876-2.815,0-.8Z" transform="translate(-1030.878 -138.214)" fill="#fbb03b"/>
      </g>
    </g>
    <g id="Group_181" data-name="Group 181" transform="translate(2.872 10.453)">
      <g id="Group_175" data-name="Group 175" transform="translate(7.327 52.36)">
        <path id="Path_818" data-name="Path 818" d="M1011.628,159.506l-13.836,8.04a2.615,2.615,0,0,1-1.171.324q-2.279.156-6-2a55.14,55.14,0,0,1-8.682-6.368,69.968,69.968,0,0,1-8.4-8.831l13.836-8.041a69.956,69.956,0,0,0,8.4,8.831,55.132,55.132,0,0,0,8.683,6.368q3.722,2.15,6,2A2.641,2.641,0,0,0,1011.628,159.506Z" transform="translate(-973.538 -142.629)" fill="#f2f2f2" stroke="#fbb03b" stroke-linecap="round" stroke-linejoin="round" stroke-width="1.001"/>
      </g>
      <g id="Group_176" data-name="Group 176" transform="translate(39.029 49.523)">
        <path id="Path_819" data-name="Path 819" d="M1029.215,181.971l-13.836,8.041a9.118,9.118,0,0,0,2.508-2.146q3.146-3.886,3.169-10.469a33.8,33.8,0,0,0-3.917-15.5,46.352,46.352,0,0,0-11.3-14.114l13.836-8.04a46.327,46.327,0,0,1,11.3,14.114,33.805,33.805,0,0,1,3.917,15.5q-.019,6.578-3.168,10.469A9.121,9.121,0,0,1,1029.215,181.971Z" transform="translate(-1005.835 -139.738)" fill="#f2f2f2" stroke="#fbb03b" stroke-linecap="round" stroke-linejoin="round" stroke-width="1.001"/>
      </g>
      <g id="Group_177" data-name="Group 177" transform="translate(39.029 42.56)">
        <path id="Path_820" data-name="Path 820" d="M1017.7,140.685l13.836-8.041-11.865,6.963-13.836,8.041Z" transform="translate(-1005.835 -132.644)" fill="#f2f2f2"/>
      </g>
      <g id="Group_178" data-name="Group 178" transform="translate(50.894 27.408)">
        <path id="Path_821" data-name="Path 821" d="M1017.966,125.249l13.836-8.041-.043,15.151-13.836,8.041Z" transform="translate(-1017.923 -117.208)" fill="#f2f2f2" stroke="#fbb03b" stroke-linecap="round" stroke-linejoin="round" stroke-width="1.001"/>
      </g>
      <g id="Group_179" data-name="Group 179" transform="translate(3.465)">
        <path id="Path_822" data-name="Path 822" d="M969.6,97.326l13.836-8.041,47.472,27.408-13.836,8.041Z" transform="translate(-969.603 -89.286)" fill="#f2f2f2" stroke="#fbb03b" stroke-linecap="round" stroke-linejoin="round" stroke-width="1.001"/>
      </g>
      <g id="Group_180" data-name="Group 180" transform="translate(0 8.04)">
        <path id="Path_823" data-name="Path 823" d="M1017.01,124.885l-.042,15.151L1005.1,147a46.355,46.355,0,0,1,11.3,14.114,33.8,33.8,0,0,1,3.917,15.5q-.019,6.578-3.169,10.469t-9.716,3.652q-6.552-.224-16.285-5.846a97.628,97.628,0,0,1-13.412-9.417,84.444,84.444,0,0,1-11.668-11.656l7.327-13.982a69.942,69.942,0,0,0,8.4,8.831,55.148,55.148,0,0,0,8.682,6.368q3.722,2.15,6,2c1.52-.1,2.282-1.055,2.287-2.863q.013-5.022-7.531-9.375l-8.46-4.885.043-15.152,9.4-5.558-22.736-13.127.053-18.6Z" transform="translate(-966.073 -97.477)" fill="#fff" stroke="#fbb03b" stroke-linecap="round" stroke-linejoin="round" stroke-width="1.001"/>
      </g>
    </g>
  </g>
</svg>
