<svg xmlns="http://www.w3.org/2000/svg" width="146.597" height="159.472"><g data-name="Group 205"><path data-name="Path 774" d="M3.805 122.309l-1.483 1.038a5.446 5.446 0 00.388 9.17l38.931 26.218a5.446 5.446 0 005.921-.294l74.785-47.13c4.652-3.358 1.617-8.8-4.048-7.894L6.066 121.393a5.463 5.463 0 00-2.261.916z" fill="#f2f2f2"/><path data-name="Path 775" d="M133.869.986c-1.225-.713-2.922-.617-4.785.458L61.068 40.713a14.847 14.847 0 00-6.711 11.624l.221 78.149c.007 2.119.76 3.612 1.972 4.315l10.035 5.832c-1.211-.7-1.965-2.2-1.971-4.315l-.221-78.149a14.846 14.846 0 016.711-11.624L139.12 7.276c1.863-1.075 3.559-1.171 4.785-.458z" fill="#f2f2f2" stroke="#fbb03b" stroke-miterlimit="10"/><g data-name="Group 133"><path data-name="Path 776" d="M139.119 7.276c3.7-2.138 6.743-.405 6.756 3.849l.221 78.149a14.849 14.849 0 01-6.711 11.632l-68.016 39.269c-3.7 2.138-6.743.405-6.756-3.857l-.221-78.149a14.846 14.846 0 016.711-11.624z" fill="#fff" stroke="#fbb03b" stroke-linecap="round" stroke-linejoin="round" stroke-width="1.001"/></g><g data-name="Group 134"><path data-name="Path 777" d="M4.926 106.671l13.38-7.776 22.315-10.8-13.38 7.776z" fill="#f2f2f2"/></g><g data-name="Group 135"><path data-name="Path 778" d="M41.593 87.567l-13.38 7.775q-.457.266-.975.524l13.38-7.776q.514-.258.975-.523z" fill="#f2f2f2"/></g><g data-name="Group 136"><path data-name="Path 779" d="M19.001 79.23l13.38-7.776a5.322 5.322 0 00-1.939 2.057l-13.38 7.775a5.31 5.31 0 011.939-2.056z" fill="#f2f2f2"/></g><g data-name="Group 137"><path data-name="Path 780" d="M54.266 131.316l13.38-7.776-.052 18.489-13.38 7.776z" fill="#f2f2f2" stroke="#fbb03b" stroke-linecap="round" stroke-linejoin="round" stroke-width="1.001"/></g><g data-name="Group 138"><path data-name="Path 781" d="M33.515 119.334l13.38-7.776 20.751 11.981-13.38 7.776z" fill="#f2f2f2" stroke="#fbb03b" stroke-linecap="round" stroke-linejoin="round" stroke-width="1.001"/></g><path data-name="Path 782" d="M63.199 77.544a48 48 0 00-8.777-12.859 56.177 56.177 0 00-12.92-10.194q-9.581-5.532-16.369-5.042a13.558 13.558 0 00-5.943 1.731L5.81 58.956a13.546 13.546 0 015.943-1.731q6.786-.488 16.369 5.042a56.2 56.2 0 0112.92 10.193 48.015 48.015 0 018.778 12.86 31.958 31.958 0 013.131 13.449 19.776 19.776 0 01-2.189 9.723 15.043 15.043 0 01-5.784 5.361l13.38-7.776a15.04 15.04 0 005.778-5.358 19.775 19.775 0 002.189-9.722 31.959 31.959 0 00-3.126-13.453z" fill="#f2f2f2" stroke="#fbb03b" stroke-linecap="round" stroke-linejoin="round" stroke-width="1.001"/><g data-name="Group 139"><path data-name="Path 783" d="M28.121 62.267a56.2 56.2 0 0112.92 10.193 48.014 48.014 0 018.777 12.86 31.955 31.955 0 013.131 13.449 19.776 19.776 0 01-2.189 9.723q-2.169 3.854-8.426 6.721l-8.822 4.124 20.751 11.981-.053 18.489-49.332-28.481.042-14.652 22.315-10.8a8.96 8.96 0 003.881-3.123 7.332 7.332 0 00.982-3.785 8.927 8.927 0 00-1.528-4.977 12.824 12.824 0 00-4.437-4.034 8.519 8.519 0 00-5.278-1.324 4.88 4.88 0 00-3.8 2.664L1.427 63.267a12.615 12.615 0 0110.318-6.033q6.792-.497 16.376 5.033z" fill="#fff" stroke="#fbb03b" stroke-linecap="round" stroke-linejoin="round" stroke-width="1.001"/></g><g data-name="Group 142"><g data-name="Group 140"><path data-name="Path 784" d="M108.301 74.936c1.238-.715 2.25-.138 2.253 1.291a4.942 4.942 0 01-2.238 3.878c-1.243.718-2.25.139-2.254-1.284a3.849 3.849 0 01.216-1.242l-4.513-2.566c-.289-.171-.29-.717 0-1.22a1.535 1.535 0 01.53-.555.545.545 0 01.532-.058l4.508 2.574a3.935 3.935 0 01.966-.818zm.01 3.446a1.648 1.648 0 00.745-1.289c0-.478-.339-.671-.75-.434a1.643 1.643 0 00-.75 1.3c0 .472.339.664.755.423" fill="#fbb03b"/></g><g data-name="Group 141"><path data-name="Path 785" d="M118.856 60.48c2.276 1.584 3.669 4.625 3.681 8.831.019 9.026-6.328 20.026-14.181 24.558s-14.252.9-14.277-8.13c-.025-8.742 5.926-19.333 13.432-24.114l-.015-5.181-3.746 2.162c-.411.237-.748.045-.749-.434a1.644 1.644 0 01.744-1.289l8.991-5.191c.41-.236.748-.045.749.427a1.647 1.647 0 01-.744 1.3l-3.746 2.163.014 5.181c3.368-1.742 6.423-1.959 8.778-.887l1.931-3.337a1.52 1.52 0 01.53-.559.521.521 0 01.527-.051c.294.162.3.707 0 1.214zm-10.5 31.666c7.027-4.057 12.712-13.9 12.689-21.973-.011-4.041-1.447-6.879-3.759-8.2s-5.5-1.11-9.014.918c-7.032 4.06-12.712 13.9-12.689 21.978s5.74 11.333 12.773 7.273" fill="#fbb03b"/></g></g></g></svg>