<svg xmlns="http://www.w3.org/2000/svg" width="23" height="22.759" viewBox="0 0 23 22.759"><path d="M275.718,1051.379l-.006-.005-.022-.019-.076-.064-.272-.241c-.231-.208-.553-.51-.933-.89a26.086,26.086,0,0,1-2.339-2.677h-2.529a1.034,1.034,0,0,0-.968.671l-1.552,4.138a1.034,1.034,0,0,0,.968,1.4h16.788a1.034,1.034,0,0,0,.968-1.4l-1.552-4.138a1.034,1.034,0,0,0-.968-.671H280.7a26.086,26.086,0,0,1-2.339,2.677c-.38.38-.7.682-.933.89l-.272.241-.076.064-.022.019-.006.005,0,0a1.034,1.034,0,0,1-1.324,0Zm.665-14.241a3.1,3.1,0,1,0,3.1,3.1A3.1,3.1,0,0,0,276.383,1037.138Zm-1.034,3.1a1.034,1.034,0,1,1,1.034,1.035A1.035,1.035,0,0,1,275.349,1040.241Zm8.276,0a10.658,10.658,0,0,1-1.558,5.172h1.159a3.1,3.1,0,0,1,2.906,2.014l1.552,4.138a3.1,3.1,0,0,1-2.906,4.193H267.99a3.1,3.1,0,0,1-2.906-4.193l1.552-4.138a3.1,3.1,0,0,1,2.906-2.014H270.7a10.658,10.658,0,0,1-1.558-5.172,7.241,7.241,0,0,1,14.483,0Zm-12.414,0a5.172,5.172,0,0,1,10.345,0,10.225,10.225,0,0,1-2.223,5.6,23.5,23.5,0,0,1-2.44,2.852c-.186.187-.358.353-.509.5-.151-.143-.323-.308-.509-.5a23.5,23.5,0,0,1-2.44-2.852A10.225,10.225,0,0,1,271.211,1040.241Z" transform="translate(-264.883 -1033)" fill="#ffc200" fill-rule="evenodd"/></svg>