<svg xmlns="http://www.w3.org/2000/svg" width="23" height="22.759"><path d="M10.835 18.379l-.006-.005-.022-.019-.076-.064-.272-.241c-.231-.208-.553-.51-.933-.89a26.086 26.086 0 01-2.339-2.677H4.658a1.034 1.034 0 00-.968.671l-1.552 4.138a1.034 1.034 0 00.968 1.4h16.788a1.034 1.034 0 00.968-1.4l-1.552-4.138a1.034 1.034 0 00-.968-.671h-2.525a26.086 26.086 0 01-2.339 2.677c-.38.38-.7.682-.933.89l-.272.241-.076.064-.022.019-.006.005a1.034 1.034 0 01-1.324 0zM11.5 4.138a3.1 3.1 0 103.1 3.1 3.1 3.1 0 00-3.1-3.1zm-1.034 3.1A1.034 1.034 0 1111.5 8.273a1.035 1.035 0 01-1.034-1.032zm8.276 0a10.658 10.658 0 01-1.558 5.172h1.159a3.1 3.1 0 012.906 2.014l1.552 4.138a3.1 3.1 0 01-2.906 4.193H3.107a3.1 3.1 0 01-2.906-4.193l1.552-4.138a3.1 3.1 0 012.906-2.014h1.158a10.658 10.658 0 01-1.558-5.172 7.242 7.242 0 0114.483 0zm-12.414 0a5.173 5.173 0 0110.345 0 10.225 10.225 0 01-2.223 5.6 23.5 23.5 0 01-2.44 2.852c-.186.187-.358.353-.509.5a16.21 16.21 0 01-.509-.5 23.5 23.5 0 01-2.44-2.852 10.225 10.225 0 01-2.224-5.597z" fill="#ffc200" fill-rule="evenodd"/></svg>