<svg xmlns="http://www.w3.org/2000/svg" width="277.35" height="259.135"><path d="M106.204 185.64c9.382 5.415 9.432 14.2.111 19.614l-65.4 38.006c-9.3 5.407-24.463 5.407-33.845-.011s-9.43-14.2-.129-19.6l65.4-38.006c9.322-5.421 24.481-5.421 33.863-.003z" fill="#f2f2f2"/><path d="M166.245 69.296a15.388 15.388 0 011.771-.564 11.93 11.93 0 011.453-.259c.155-.017.309-.035.462-.046a9.379 9.379 0 011.017-.017h.2a8.819 8.819 0 011.144.146c.1.02.187.044.281.065a7.721 7.721 0 01.847.246c.087.031.174.059.259.091a7.384 7.384 0 011.017.484l-23.03-13.384-.085-.048a7.2 7.2 0 00-.782-.381c-.048-.022-.1-.035-.15-.054-.085-.033-.172-.061-.259-.092-.137-.048-.27-.1-.412-.144s-.29-.068-.436-.1c-.094-.022-.185-.046-.279-.063-.054-.011-.1-.028-.157-.037a8.739 8.739 0 00-.937-.109.416.416 0 00-.052 0h-.2a10.502 10.502 0 00-.775-.007c-.078 0-.161.02-.242.024-.153.011-.307.028-.462.046s-.3.022-.449.046c-.122.02-.248.057-.37.081-.209.037-.42.083-.632.133-.12.028-.233.044-.353.076s-.229.083-.34.118c-.355.107-.717.231-1.08.372-.131.05-.257.078-.39.133-.072.031-.146.078-.218.109a18.29 18.29 0 00-1.921.956l-5.409 3.124 23.03 13.382 5.409-3.124a18.7 18.7 0 011.921-.954c.206-.095.406-.171.609-.249zM81.244 80.231q.137-1.372.335-2.758c.146-1.009.329-2.024.523-3.041.135-.712.261-1.422.42-2.137.148-.66.318-1.32.486-1.98.231-.917.468-1.834.736-2.751q.235-.8.488-1.6.49-1.555 1.046-3.109c.15-.418.294-.839.451-1.255a90.25 90.25 0 011.714-4.25c.083-.187.174-.373.259-.562a90.975 90.975 0 012.329-4.851q.9-1.751 1.878-3.47c.129-.229.251-.46.383-.686a92.796 92.796 0 012.438-3.967c.244-.379.5-.749.752-1.122q.934-1.4 1.915-2.76c.357-.5.719-.987 1.087-1.475a93.24 93.24 0 011.738-2.226c.5-.621 1-1.239 1.514-1.843.486-.573.987-1.128 1.484-1.684q1.261-1.408 2.57-2.738c.538-.547 1.074-1.1 1.625-1.625.425-.41.856-.808 1.29-1.2q1.082-.987 2.187-1.915c.436-.366.869-.732 1.309-1.085.8-.636 1.608-1.237 2.42-1.826.39-.281.773-.577 1.165-.845a56.116 56.116 0 013.664-2.331 44.721 44.721 0 013.125-1.64q.908-.441 1.806-.826c.22-.1.444-.2.664-.285a40.303 40.303 0 011.619-.617c.168-.059.34-.128.508-.187q1.049-.356 2.076-.638c.081-.024.159-.039.24-.061a30.8 30.8 0 013.163-.675l.1-.017a26.536 26.536 0 012.566-.257c.174-.009.349-.022.521-.026a23.702 23.702 0 012.25.017c.113.007.224.022.338.031q.908.069 1.786.209c.181.028.359.057.538.089a19.368 19.368 0 011.941.449l.03.009c.619.181 1.216.4 1.8.636.166.068.329.14.492.209q.732.323 1.436.7c.152.085.314.159.464.246L123.882 3.116l-.214-.122c-.072-.041-.168-.078-.25-.122q-.7-.382-1.436-.7c-.091-.041-.176-.091-.268-.131-.072-.03-.15-.05-.224-.078a19.387 19.387 0 00-1.8-.638l-.024-.009h-.007a20 20 0 00-1.941-.449c-.081-.015-.155-.039-.235-.054-.1-.015-.2-.02-.3-.035a22.988 22.988 0 00-1.786-.209c-.087-.007-.168-.024-.255-.028h-.083a23.027 23.027 0 00-2.248-.017c-.078 0-.155-.006-.233 0-.094 0-.194.024-.29.028-.841.048-1.695.124-2.566.257h-.026c-.024 0-.048.011-.072.013a30.955 30.955 0 00-3.163.677c-.052.013-.1.017-.155.033l-.085.026q-1.026.281-2.076.638c-.168.059-.34.128-.508.19-.536.192-1.074.392-1.619.614-.081.033-.159.059-.242.094-.139.057-.283.133-.423.192q-.9.386-1.806.826c-.233.113-.464.222-.7.34-.8.405-1.61.832-2.424 1.3a55.173 55.173 0 00-3.664 2.331c-.392.268-.773.564-1.161.843a64.981 64.981 0 00-2.425 1.83c-.44.351-.874.717-1.309 1.083q-1.1.931-2.187 1.915c-.433.4-.863.8-1.29 1.2-.259.248-.529.479-.786.732-.287.283-.553.606-.839.9q-1.31 1.33-2.568 2.736c-.266.3-.549.562-.81.863-.231.266-.447.553-.677.823-.512.6-1.011 1.218-1.51 1.839-.316.394-.649.769-.958 1.17-.27.346-.521.71-.784 1.063q-.549.729-1.083 1.468c-.237.329-.488.645-.721.978-.412.586-.8 1.192-1.2 1.788-.248.372-.5.738-.745 1.115-.1.153-.207.3-.3.455q-1.039 1.624-2.011 3.292c-.044.074-.083.148-.124.222-.133.227-.253.46-.383.686-.447.786-.9 1.573-1.32 2.37-.194.364-.37.736-.56 1.1-.2.39-.4.778-.59 1.168-.172.346-.357.688-.525 1.037a93.852 93.852 0 00-1.213 2.647c-.083.187-.174.372-.255.562-.024.054-.052.109-.076.163q-.751 1.735-1.425 3.483c-.076.2-.139.4-.216.6-.157.418-.3.839-.451 1.259-.216.6-.444 1.2-.645 1.8-.146.436-.261.869-.4 1.3a96.83 96.83 0 00-.49 1.6c-.1.344-.22.688-.316 1.035-.159.573-.277 1.144-.42 1.717-.168.662-.338 1.32-.486 1.98-.055.242-.126.486-.179.728-.1.473-.152.939-.242 1.411a68.907 68.907 0 00-.523 3.037c-.041.29-.111.586-.15.876-.083.634-.122 1.259-.185 1.886-.044.453-.1.906-.133 1.357a54.944 54.944 0 00-.172 4.248l.092 32.395-5.409 3.124a23.515 23.515 0 00-2.385 1.612c-.135.1-.27.2-.405.307a27.733 27.733 0 00-2.159 1.9c-.057.057-.12.1-.177.157-.115.113-.224.242-.338.359a32.28 32.28 0 00-1.024 1.091c-.107.118-.22.224-.325.344s-.179.222-.272.331c-.2.242-.4.488-.6.736-.126.157-.259.3-.383.464-.107.142-.209.288-.316.429-.144.194-.288.388-.431.586-.094.131-.194.257-.288.39-.166.237-.322.481-.486.723-.1.148-.2.29-.292.438-.039.061-.083.12-.122.181q-.415.65-.8 1.318l-.052.094c-.052.091-.1.183-.152.274-.179.314-.357.625-.525.941-.078.148-.15.3-.227.449s-.159.309-.235.464c-.07.137-.142.274-.209.412-.172.355-.331.712-.49 1.072-.033.072-.068.144-.1.216l-.031.061c-.2.464-.39.928-.569 1.394-.033.081-.057.163-.087.244-.063.17-.122.338-.183.508-.085.237-.176.475-.255.712-.059.176-.107.353-.161.529l-.2.638c-.039.137-.087.274-.126.412-.063.231-.111.464-.17.695-.065.264-.133.525-.192.786-.022.1-.052.194-.072.29-.041.192-.061.379-.1.569-.078.407-.15.813-.209 1.218-.015.115-.044.233-.059.349s-.009.207-.022.314a23.166 23.166 0 00-.176 2.69l.187 65.7c.013 4.851 1.743 8.273 4.52 9.888l23.03 13.382c-2.777-1.614-4.507-5.036-4.52-9.888l-.185-65.7a22.692 22.692 0 01.174-2.688c.026-.22.05-.44.081-.662.059-.405.133-.813.209-1.222.054-.283.1-.566.168-.852.059-.264.128-.529.2-.8.091-.366.187-.732.294-1.1.061-.216.129-.429.2-.643.131-.414.268-.826.416-1.237.061-.172.12-.342.183-.512.213-.569.44-1.135.684-1.7.033-.074.068-.144.1-.218q.33-.745.7-1.481l.237-.466c.24-.466.49-.93.752-1.388.052-.091.1-.185.152-.277q.47-.807.976-1.588c.1-.15.2-.3.3-.444.25-.375.505-.745.769-1.109.142-.2.287-.392.431-.586.229-.3.464-.6.7-.9.2-.246.4-.494.6-.734s.4-.453.595-.675c.335-.375.68-.741 1.028-1.1.17-.172.34-.344.512-.512a28.718 28.718 0 012.159-1.9c.133-.1.27-.2.405-.3a23.167 23.167 0 012.385-1.612l5.409-3.124-.091-32.394c0-1.4.065-2.819.172-4.25.018-.432.075-.888.118-1.341z" fill="#f2f2f2" stroke="#fbb03b" stroke-miterlimit="10"/><path d="M119.451 19.135c21.252-12.271 38.694-2.331 38.762 22.089l.094 32.395 5.409-3.124c8.5-4.906 15.475-.93 15.5 8.851l.185 65.7c.028 9.766-6.9 21.771-15.4 26.679l-88.1 50.861c-8.5 4.906-15.473.93-15.5-8.835l-.187-65.7c-.026-9.781 6.905-21.786 15.4-26.692l5.409-3.124-.091-32.394c-.058-24.422 17.267-54.438 38.519-66.706z" fill="#fff" stroke="#fbb03b" stroke-linecap="round" stroke-linejoin="round" stroke-width="1.001"/><path stroke-width="1.001" stroke="#fbb03b" stroke-linecap="round" stroke-linejoin="round" fill="none" d="M57.725 105.533l21.784 13.07m2.178 0l78.421-45.746"/><path d="M128.92 127.131c1.266-.73 2.311-.133 2.316 1.337l.065 23.093a5.1 5.1 0 01-2.3 3.984l-2.324 1.342c-1.279.738-2.324.142-2.329-1.311l-.065-23.093a5.11 5.11 0 012.316-4.01z" fill="#fff" stroke="#fbb03b"/><path d="M229.367 160.192c-.148-.089-.3-.179-.447-.264-6.2-3.605-11.824-3.949-15.9-1.6l-6.474 3.736-32.377-18.817a2.959 2.959 0 00-2.96-.3l-7.69 4.439a2.959 2.959 0 012.96.3l34.325 19.952 7.69-4.44-1.826-1.061c3.928-1.595 9.005-1 14.56 2.231.148.085.3.174.447.264 11.619 7.01 21.3 23.559 21.771 37.25.261 7.716-2.3 13.12-6.555 15.58l7.688-4.44c4.261-2.457 6.818-7.862 6.555-15.58-.463-13.691-10.146-30.238-21.767-37.25z" fill="#f2f2f2" stroke="#fbb03b" stroke-miterlimit="10"/><path d="M221.231 164.369c.148.085.3.174.447.264 11.622 7.01 21.3 23.559 21.771 37.25.512 15.114-9.792 21.359-22.509 13.968-7.79-4.527-14.608-13.092-18.582-22.376l-11.274-6.551a4.572 4.572 0 01-1.577-1.671l-5.559-9.676a4.181 4.181 0 00-1.462-1.557 1.455 1.455 0 00-1.468-.146l-4.165 2.342a1.393 1.393 0 01-1.379-.144l-8.955-5.2a4.855 4.855 0 01-1.73-1.9l-5.9-11.047c-.66-1.73-.649-3.374.024-4.331l3.947-5.579c.745-1.074 2.137-1.179 3.623-.314l34.325 19.95c3.576-6.866 11.376-8.541 20.423-3.282z" fill="#fff" stroke="#fbb03b" stroke-linecap="round" stroke-linejoin="round" stroke-width="1.001"/><path d="M159.369 213.295c-5.3 3.039-5.337 7.986-.094 11.055l56.37 32.473c5.232 3.061 13.776 3.087 19.072.048s5.339-7.986.1-11.047l-56.365-32.473c-5.244-3.067-13.787-3.093-19.083-.056z" fill="#f2f2f2"/><path d="M229.025 194.691a3.407 3.407 0 011.529 2.671c0 .974-.7 1.37-1.551.878l-9.247-5.376a3.409 3.409 0 01-1.531-2.669c.007-.976.706-1.37 1.553-.878z" fill="none" stroke="#fbb03b"/></svg>