<svg xmlns="http://www.w3.org/2000/svg" width="137.283" height="193.224"><path d="M61.786 157.344c5.458 3.151 5.486 8.26.064 11.411l-38.046 22.111c-5.413 3.146-14.232 3.146-19.69-.005s-5.486-8.26-.075-11.406l38.047-22.11c5.422-3.152 14.238-3.152 19.7-.001zm71.385-10.447c5.458 3.151 5.486 8.26.064 11.411l-38.046 22.111c-5.413 3.146-14.232 3.146-19.69-.005s-5.486-8.26-.075-11.406l38.047-22.11c5.421-3.152 14.238-3.152 19.7-.001z" fill="#f2f2f2"/><path d="M80.996 39.219L80.785 7.71 68.514.578 19.869 28.92c-5.847 3.4-10.61 11.692-10.558 18.4l.841 124.273c.021 3.308 1.2 5.643 3.1 6.747l12.271 7.131c-1.9-1.1-3.082-3.439-3.1-6.747L21.58 54.451c-.052-6.712 4.713-15 10.56-18.4l36.469-21.248.116 17.46c.021 3.317 1.21 5.652 3.113 6.759l.066.038c-.022-.014-.047-.021-.07-.033l12.271 7.13c1.941 1.128 4.628.977 7.577-.728z" fill="#f2f2f2" stroke="#fbb03b" stroke-miterlimit="10"/><path d="M80.785 7.711l36.107 23.038.63 92.574c.052 6.714-4.7 15-10.558 18.405l-73.812 43c-5.892 3.4-10.687.7-10.729-6L21.58 54.455c-.052-6.712 4.713-15 10.56-18.4L80.784 7.713z" fill="#fff" stroke="#fbb03b" stroke-linecap="round" stroke-linejoin="round" stroke-width="1.001"/><g fill="#fbb03b"><path d="M81.796 6.845a.382.382 0 01.259.031h-.005a.35.35 0 00-.254-.031zm-4.665 71.638l-37.673 21.942.015 1.411 37.662-21.931zm-37.424 58.761l.015 1.412 63.607-37.056-.015-1.411zm63.489-55.462l-63.607 37.043v1.418L103.196 83.2z"/><path d="M118.283 30.634l.011-.021a.915.915 0 00.038-.383.446.446 0 00-.023-.085.462.462 0 00-.029-.118v.07c-.03-.068-.052-.145-.11-.178L82.056 6.877a.39.39 0 00-.28-.024.724.724 0 00-.214.1L32.973 35.248c-6.193 3.615-11.2 12.327-11.18 19.493L22.634 179c.043 7.09 5.117 9.956 11.343 6.362l73.821-43.005c6.181-3.6 11.19-12.32 11.169-19.474zm-1.981.145l-23.561 13.73-.228.132c-5.492 3.171-10.031.622-10.071-5.688l-.2-29.89zm-8.517 110.164l-73.856 43.024c-5.491 3.171-10.02.616-10.06-5.681l-.843-124.323c-.017-6.31 4.459-14.089 9.95-17.286L80.997 8.696l.211 30.983c.054 7.083 5.127 9.949 11.354 6.353l.01-.005 24.536-14.291.625 91.921c.019 6.312-4.457 14.089-9.949 17.286z"/></g><path d="M113.497 83.88c-3.933-2.286-9.379-1.962-15.389 1.508-11.939 6.893-21.579 23.59-21.541 37.308a21.744 21.744 0 001.224 7.445l-2.068 28.317a1.645 1.645 0 00.639 1.638l12.271 7.132a1.647 1.647 0 01-.639-1.638l2.068-28.319a21.7 21.7 0 01-1.222-7.443c-.04-13.718 9.6-30.415 21.539-37.308 6.01-3.47 11.456-3.794 15.39-1.508z" fill="#f2f2f2" stroke="#fbb03b" stroke-miterlimit="10"/><path d="M110.375 92.515c11.939-6.893 21.652-1.37 21.691 12.35a35.789 35.789 0 01-1.187 8.836l2.222 25.841a4.815 4.815 0 01-2.2 4.038 2.366 2.366 0 01-.675.268l-19.7 4.015-19.655 18.7a3.683 3.683 0 01-.672.51c-1.247.719-2.323.1-2.215-1.492l2.069-28.319a21.74 21.74 0 01-1.224-7.443c-.03-13.712 9.611-30.404 21.546-37.304z" fill="#fff" stroke="#fbb03b" stroke-linecap="round" stroke-linejoin="round" stroke-width="1.001"/><path d="M111.127 125.956l.012-.021v.005zm-.821.503a.46.46 0 00.4-.061 1.212 1.212 0 00.4-.406 1.191 1.191 0 01-.4.409.446.446 0 01-.4.058z" fill="#fbb03b"/><path d="M110.562 91.889c11.88-6.858 21.591-1.335 21.63 12.327s-9.611 30.361-21.489 37.22-21.591 1.325-21.63-12.325 9.599-30.354 21.489-37.222zm.136 48.161c11.223-6.48 20.322-22.243 20.286-35.137s-9.2-18.127-20.418-11.648-20.333 22.248-20.3 35.154 9.2 18.115 20.428 11.631" fill="#fbb03b"/><path d="M121.982 101.833a.435.435 0 01.4-.054c.249.117.272.538.045.954l-11.933 22.051a1.309 1.309 0 01-.442.481.438.438 0 01-.386.057c-.26-.145-.277-.554-.058-.958l.42-.775 11.514-21.276a1.244 1.244 0 01.44-.48z" fill="#fbb03b"/><path d="M109.606 124.365c-.219.4-.2.813.028.942l-7.217-4.111c-.237-.123-.239-.569 0-.966a1.213 1.213 0 01.425-.451.431.431 0 01.427-.042l6.759 3.853z" fill="#fbb03b"/><path stroke-width="1.001" stroke="#fbb03b" stroke-linecap="round" stroke-linejoin="round" fill="none" d="M79.088 130.58l12.188 6.964"/></svg>