<svg xmlns="http://www.w3.org/2000/svg" width="183.656" height="157.859"><path d="M180.21 100.874c3.907 2.256 3.928 5.942.052 8.194l-81.053 47.1a15.645 15.645 0 01-14.146 0l-81.577-47.1c-3.9-2.252-3.922-5.938-.046-8.191l81.053-47.1a15.635 15.635 0 0114.14 0z" fill="#f2f2f2"/><path d="M180.262 83.068l-81.053 47.1a15.645 15.645 0 01-14.146 0l-81.577-47.1c-1.963-1.133-2.944-2.63-2.94-4.124L.5 95.244c0 1.494.976 2.991 2.939 4.124l81.577 47.1a15.64 15.64 0 0014.147 0l81.053-47.1c1.925-1.119 2.889-2.591 2.893-4.066l.046-16.3c-.004 1.476-.968 2.948-2.893 4.066z" fill="#f2f2f2" stroke="#5f70af" stroke-linejoin="round" stroke-width="1.001"/><path d="M180.21 74.874c3.907 2.256 3.928 5.942.052 8.194l-81.053 47.1a15.645 15.645 0 01-14.146 0l-81.577-47.1c-3.9-2.252-3.922-5.938-.046-8.191l81.053-47.1a15.635 15.635 0 0114.14 0z" fill="#fff" stroke="#5f70af" stroke-linejoin="round" stroke-width="1.001"/><path d="M91.872 69.987L81.3 63.843l17.883-10.325 10.572 6.144z" fill="#f2f2f2" stroke="#5f70af" stroke-linejoin="round" stroke-width="1.001"/><path d="M104.887 66.496c3.135 1.81 3.151 4.744.037 6.554l-21.852 12.7a12.464 12.464 0 01-11.309 0c-3.135-1.81-3.151-4.744-.043-6.551l21.852-12.7a12.468 12.468 0 0111.315-.003z" fill="#f2f2f2"/><path d="M81.898 86.124l-10.574-6.576-.21-73.271 10.572 6.076z" fill="#f2f2f2" stroke="#5f70af" stroke-linejoin="round" stroke-width="1.001"/><path d="M81.688 12.424L71.116 6.28l10-5.776 10.572 6.144z" fill="#f2f2f2" stroke="#5f70af" stroke-linejoin="round" stroke-width="1.001"/><path d="M91.693 6.644l.18 63.343 17.883-10.325.03 10.748-27.888 16.1-.21-74.091z" fill="#fff" stroke="#5f70af" stroke-linejoin="round" stroke-width="1.001"/><path d="M39.614 76.584q-.168 1.665-2.673 3.121l-.251.146a11.24 11.24 0 01-3.444 1.293 10.861 10.861 0 01-3.661.134 8.729 8.729 0 01-3.215-1.065q-2.171-1.254-2.008-2.921t2.668-3.123l.241-.14a11.462 11.462 0 017.1-1.421 8.639 8.639 0 013.223 1.054q2.187 1.262 2.02 2.922zm-4.024 2.515l.23-.134a5.282 5.282 0 001.812-1.591 1.888 1.888 0 00.3-1.681 2.772 2.772 0 00-1.353-1.436 6.783 6.783 0 00-3.892-.79 9.687 9.687 0 00-4.311 1.326l-.221.128a3.925 3.925 0 00-2.18 2.442q-.235 1.309 1.411 2.261a6.792 6.792 0 003.9.8 9.662 9.662 0 004.31-1.328m53.901 24.762l1.211.7-10.849 6.3-1.211-.7 8.914-5.18-14.808 1.777-1.2-.693 10.849-6.3 1.2.693-8.924 5.186zm-18.768-1.134a6.659 6.659 0 00-2.023 1.561l-.12.07-1.292-.746a5.818 5.818 0 011.282-1.014 10.032 10.032 0 01-2.887-.2 8.728 8.728 0 01-2.531-.943q-1.575-.909-1.677-1.98t1.233-1.848a6.211 6.211 0 013.834-.69 11.644 11.644 0 014.621 1.6l2.19 1.265 1.233-.716q1.164-.676 1.108-1.481t-1.436-1.6a6.3 6.3 0 00-2.732-.833 4.092 4.092 0 00-2.372.42l-1.2-.705a6.01 6.01 0 013.453-.6 8.985 8.985 0 013.923 1.169q1.827 1.055 1.975 2.191t-1.446 2.1zm-.678-1l2.386-1.387-2.161-1.247a9.745 9.745 0 00-3.481-1.25 4.279 4.279 0 00-2.771.429c-.607.353-.886.777-.832 1.272s.443.954 1.169 1.374a7.52 7.52 0 002.747.912 8.237 8.237 0 002.943-.1M51.977 88.073l-.641.384a11.993 11.993 0 01-4.956 1.664 7.138 7.138 0 01-4.307-.831 3.163 3.163 0 01-1.405-1.357l-4.43 2.575-1.2-.694 4.421-2.569a6.329 6.329 0 01-2.277-.781q-1.727-1-1.466-2.351t2.454-2.747l.642-.385a13.359 13.359 0 015.225-1.827 7.078 7.078 0 014.425.778 2.822 2.822 0 011.325 1.311l4.823-2.8 1.2.694-4.862 2.826a5.945 5.945 0 012.367.775q1.746 1.008 1.4 2.424t-2.738 2.911zm-5.824 1.092a10.723 10.723 0 004.191-1.525 5.821 5.821 0 002.647-2.455q.461-1.186-.962-2.007a4.721 4.721 0 00-2.035-.664l-8.393 4.877a2.709 2.709 0 001.223 1.159 5.384 5.384 0 003.329.615m-5.734-2.479l8.4-4.884a2.294 2.294 0 00-1.154-1.141 5.261 5.261 0 00-3.433-.536 12.348 12.348 0 00-4.426 1.677 5.114 5.114 0 00-2.426 2.288q-.383 1.1 1.041 1.92a5.247 5.247 0 001.995.676m27.593 4.766l-10.848 6.3-1.211-.7 9.807-5.7-4.471-2.581-4.25 2.247a27.163 27.163 0 01-3.893 1.737 7.786 7.786 0 01-2.739.445 4.98 4.98 0 01-2.3-.681l-.465-.268 1.063-.618.393.2a3.492 3.492 0 002.5.279 18.214 18.214 0 004.1-1.7l5.476-2.925zm18.436 8.28q-.094-.873 1.069-1.55l1.03.594q-.832.484-.775 1.028t.947 1.059a3.825 3.825 0 001.849.533 3.284 3.284 0 001.754-.44l1.028.593a4.882 4.882 0 01-2.657.627 5.938 5.938 0 01-2.836-.812q-1.314-.759-1.409-1.632zm15.879 11.532l-10.849 6.3-1.211-.7 4.973-2.89-5.884-3.4-4.973 2.89-1.211-.7 10.849-6.3 1.211.7-4.862 2.826 5.884 3.4 4.863-2.826z" fill="#5f70af"/></svg>