<svg xmlns="http://www.w3.org/2000/svg" width="183.656" height="157.859" viewBox="0 0 183.656 157.859"><g transform="translate(-814.676 -435.376)"><path d="M994.886,536.25c3.907,2.256,3.928,5.942.052,8.194l-81.053,47.1a15.645,15.645,0,0,1-14.146,0l-81.577-47.1c-3.9-2.252-3.922-5.938-.046-8.191l81.053-47.1a15.635,15.635,0,0,1,14.14,0Z" fill="#f2f2f2"/><path d="M994.938,518.444l-81.053,47.1a15.645,15.645,0,0,1-14.146,0l-81.577-47.1c-1.963-1.133-2.944-2.63-2.94-4.124l-.046,16.3c0,1.494.976,2.991,2.939,4.124l81.577,47.1a15.64,15.64,0,0,0,14.147,0l81.053-47.1c1.925-1.119,2.889-2.591,2.893-4.066l.046-16.3C997.827,515.854,996.863,517.326,994.938,518.444Z" fill="#f2f2f2" stroke="#5f70af" stroke-linejoin="round" stroke-width="1.001"/><path d="M994.886,510.25c3.907,2.256,3.928,5.942.052,8.194l-81.053,47.1a15.645,15.645,0,0,1-14.146,0l-81.577-47.1c-3.9-2.252-3.922-5.938-.046-8.191l81.053-47.1a15.635,15.635,0,0,1,14.14,0Z" fill="#fff" stroke="#5f70af" stroke-linejoin="round" stroke-width="1.001"/><path d="M906.548,505.363l-10.572-6.144,17.883-10.325,10.572,6.144Z" fill="#f2f2f2" stroke="#5f70af" stroke-linejoin="round" stroke-width="1.001"/><path d="M919.563,501.872c3.135,1.81,3.151,4.744.037,6.554l-21.852,12.7a12.464,12.464,0,0,1-11.309,0c-3.135-1.81-3.151-4.744-.043-6.551l21.852-12.7A12.468,12.468,0,0,1,919.563,501.872Z" fill="#f2f2f2"/><path d="M896.574,521.5,886,514.924l-.21-73.271,10.572,6.076Z" fill="#f2f2f2" stroke="#5f70af" stroke-linejoin="round" stroke-width="1.001"/><path d="M896.364,447.8l-10.572-6.144,10-5.776,10.572,6.144Z" fill="#f2f2f2" stroke="#5f70af" stroke-linejoin="round" stroke-width="1.001"/><path d="M906.369,442.02l.18,63.343,17.883-10.325.03,10.748-27.888,16.1-.21-74.091Z" fill="#fff" stroke="#5f70af" stroke-linejoin="round" stroke-width="1.001"/><path d="M854.29,511.96q-.168,1.665-2.673,3.121l-.251.146a11.24,11.24,0,0,1-3.444,1.293,10.861,10.861,0,0,1-3.661.134,8.729,8.729,0,0,1-3.215-1.065q-2.171-1.254-2.008-2.921t2.668-3.123l.241-.14a11.462,11.462,0,0,1,7.1-1.421,8.639,8.639,0,0,1,3.223,1.054Q854.457,510.3,854.29,511.96Zm-4.024,2.515.23-.134a5.282,5.282,0,0,0,1.812-1.591,1.888,1.888,0,0,0,.3-1.681,2.772,2.772,0,0,0-1.353-1.436,6.783,6.783,0,0,0-3.892-.79,9.687,9.687,0,0,0-4.311,1.326l-.221.128a3.925,3.925,0,0,0-2.18,2.442q-.235,1.309,1.411,2.261a6.792,6.792,0,0,0,3.9.8,9.662,9.662,0,0,0,4.31-1.328" fill="#5f70af"/><path d="M904.173,539.234l1.211.7-10.849,6.3-1.211-.7,8.914-5.18-14.808,1.777-1.2-.693,10.849-6.3,1.2.693-8.924,5.186Z" fill="#5f70af"/><path d="M885.405,538.1a6.659,6.659,0,0,0-2.023,1.561l-.12.07-1.292-.746a5.818,5.818,0,0,1,1.282-1.014,10.032,10.032,0,0,1-2.887-.2,8.728,8.728,0,0,1-2.531-.943q-1.575-.909-1.677-1.98T877.39,533a6.211,6.211,0,0,1,3.834-.69,11.644,11.644,0,0,1,4.621,1.6l2.19,1.265,1.233-.716q1.164-.676,1.108-1.481t-1.436-1.6a6.3,6.3,0,0,0-2.732-.833,4.092,4.092,0,0,0-2.372.42l-1.2-.705a6.01,6.01,0,0,1,3.453-.6,8.985,8.985,0,0,1,3.923,1.169q1.827,1.055,1.975,2.191t-1.446,2.1Zm-.678-1,2.386-1.387-2.161-1.247a9.745,9.745,0,0,0-3.481-1.25,4.279,4.279,0,0,0-2.771.429c-.607.353-.886.777-.832,1.272s.443.954,1.169,1.374a7.52,7.52,0,0,0,2.747.912,8.237,8.237,0,0,0,2.943-.1" fill="#5f70af"/><path d="M866.653,523.449l-.641.384a11.993,11.993,0,0,1-4.956,1.664,7.138,7.138,0,0,1-4.307-.831,3.163,3.163,0,0,1-1.405-1.357l-4.43,2.575-1.2-.694,4.421-2.569a6.329,6.329,0,0,1-2.277-.781q-1.727-1-1.466-2.351t2.454-2.747l.642-.385a13.359,13.359,0,0,1,5.225-1.827,7.078,7.078,0,0,1,4.425.778,2.822,2.822,0,0,1,1.325,1.311l4.823-2.8,1.2.694-4.862,2.826a5.945,5.945,0,0,1,2.367.775q1.746,1.008,1.4,2.424T866.653,523.449Zm-5.824,1.092a10.723,10.723,0,0,0,4.191-1.525,5.821,5.821,0,0,0,2.647-2.455q.461-1.186-.962-2.007a4.721,4.721,0,0,0-2.035-.664l-8.393,4.877a2.709,2.709,0,0,0,1.223,1.159,5.384,5.384,0,0,0,3.329.615m-5.734-2.479,8.4-4.884a2.294,2.294,0,0,0-1.154-1.141,5.261,5.261,0,0,0-3.433-.536,12.348,12.348,0,0,0-4.426,1.677,5.114,5.114,0,0,0-2.426,2.288q-.383,1.1,1.041,1.92a5.247,5.247,0,0,0,1.995.676" fill="#5f70af"/><path d="M882.685,526.828l-10.848,6.3-1.211-.7,9.807-5.7-4.471-2.581-4.25,2.247a27.163,27.163,0,0,1-3.893,1.737,7.786,7.786,0,0,1-2.739.445,4.98,4.98,0,0,1-2.3-.681l-.465-.268,1.063-.618.393.2a3.492,3.492,0,0,0,2.5.279,18.214,18.214,0,0,0,4.1-1.7l5.476-2.925Z" fill="#5f70af"/><path d="M901.121,535.108q-.094-.873,1.069-1.55l1.03.594q-.832.484-.775,1.028t.947,1.059a3.825,3.825,0,0,0,1.849.533,3.284,3.284,0,0,0,1.754-.44l1.028.593a4.882,4.882,0,0,1-2.657.627,5.938,5.938,0,0,1-2.836-.812Q901.216,535.981,901.121,535.108Z" fill="#5f70af"/><path d="M917,546.64l-10.849,6.3-1.211-.7,4.973-2.89-5.884-3.4-4.973,2.89-1.211-.7,10.849-6.3,1.211.7-4.862,2.826,5.884,3.4,4.863-2.826Z" fill="#5f70af"/></g></svg>