<svg xmlns="http://www.w3.org/2000/svg" width="183.655" height="162.738"><path d="M180.21 105.752c3.907 2.256 3.928 5.942.052 8.194l-81.053 47.1a15.645 15.645 0 01-14.146 0l-81.577-47.1c-3.9-2.252-3.922-5.938-.046-8.191l81.053-47.1a15.635 15.635 0 0114.14 0z" fill="#f2f2f2"/><path d="M180.262 87.946l-81.053 47.1a15.645 15.645 0 01-14.146 0l-81.577-47.1c-1.963-1.133-2.944-2.63-2.94-4.124l-.046 16.3c0 1.494.976 2.991 2.939 4.124l81.577 47.1a15.641 15.641 0 0014.147 0l81.053-47.1c1.925-1.119 2.889-2.591 2.893-4.066l.046-16.3c-.004 1.476-.968 2.948-2.893 4.066z" fill="#f2f2f2" stroke="#fbb03b" stroke-miterlimit="10"/><path d="M180.21 79.752c3.907 2.256 3.928 5.942.052 8.194l-81.053 47.1a15.645 15.645 0 01-14.146 0l-81.577-47.1c-3.9-2.252-3.922-5.938-.046-8.191l81.053-47.1a15.635 15.635 0 0114.14 0z" fill="#fff" stroke="#fbb03b" stroke-miterlimit="10"/><path d="M106.887 71.374c3.135 1.81 3.151 4.744.037 6.554l-21.852 12.7a12.464 12.464 0 01-11.309 0c-3.135-1.81-3.151-4.744-.043-6.551l21.852-12.7a12.468 12.468 0 0111.315-.003z" fill="#f2f2f2"/><path d="M90.542 74.954L79.97 68.811q1.334.774 4.018-.779a10.426 10.426 0 003.216-2.768 11.8 11.8 0 001.787-3.434 16.079 16.079 0 00.725-3.836q.127-1.992.122-4.127a26.981 26.981 0 00-.287-4.317 4.651 4.651 0 00-1.075-2.48 2.776 2.776 0 00-.616-.483l10.572 6.144a2.775 2.775 0 01.616.483 4.644 4.644 0 011.075 2.48 27.083 27.083 0 01.287 4.317q.006 2.135-.122 4.127a16.072 16.072 0 01-.725 3.835 11.8 11.8 0 01-1.787 3.435 10.426 10.426 0 01-3.216 2.768q-2.685 1.549-4.018.778zm-8.043 12.118l-10.575-6.144a4.397 4.397 0 01-.284-.176 7.378 7.378 0 01-2.845-4.075 21.272 21.272 0 01-.907-6.494l10.572 6.143a21.262 21.262 0 00.907 6.494 7.375 7.375 0 002.844 4.075c.097.062.192.121.288.177z" fill="#f2f2f2" stroke="#fbb03b" stroke-linecap="round" stroke-linejoin="round" stroke-width="1.001"/><path d="M78.464 76.326l-10.572-6.144 10-8.014 10.572 6.144zm12.128-37.612l-10.568-6.143a6.052 6.052 0 002.156.676 18.412 18.412 0 004.821-.116 17.967 17.967 0 016.825.168 8 8 0 011.884.777l10.572 6.144a7.952 7.952 0 00-1.885-.777 17.939 17.939 0 00-6.824-.168 18.456 18.456 0 01-4.821.116 6.032 6.032 0 01-2.16-.677zm-2.717-25.13l10.572 6.143a1.938 1.938 0 01.655.645q1.2 1.861 1.212 5.906l-10.571-6.144c-.008-2.692-.41-4.665-1.213-5.906a1.916 1.916 0 00-.655-.644z" fill="#f2f2f2" stroke="#fbb03b" stroke-linecap="round" stroke-linejoin="round" stroke-width="1.001"/><path d="M95.624 1.376a7.362 7.362 0 00-3.915-.873c-1.989.046-4.493.941-7.532 2.7a30.248 30.248 0 00-12.153 12.729 33.534 33.534 0 00-2.861 8.112 40.592 40.592 0 00-.909 8.747 36.014 36.014 0 00.485 6.187 9.093 9.093 0 001.957 4.419 6.736 6.736 0 001.775 1.468l10.572 6.144a6.739 6.739 0 01-1.776-1.469 9.1 9.1 0 01-1.956-4.418 36.013 36.013 0 01-.485-6.187 40.608 40.608 0 01.909-8.748 33.5 33.5 0 012.862-8.111A30.254 30.254 0 0194.749 9.342c3.04-1.754 5.544-2.649 7.533-2.7a7.362 7.362 0 013.915.873z" fill="#f2f2f2" stroke="#fbb03b" stroke-linecap="round" stroke-linejoin="round" stroke-width="1.001"/><path d="M94.747 9.342c3.04-1.754 5.544-2.649 7.533-2.7a6.768 6.768 0 014.749 1.469 8.4 8.4 0 012.525 4.193 20.3 20.3 0 01.764 5.533l-10 8.436q-.01-4.039-1.212-5.906t-4.694.145a9.04 9.04 0 00-2.89 2.528 13.1 13.1 0 00-1.7 3.215 14.563 14.563 0 00-.815 3.461 31.077 31.077 0 00-.176 3.3 24.35 24.35 0 00.194 3.246 3.264 3.264 0 001.074 2.1 5.139 5.139 0 002.651 1.027 18.456 18.456 0 004.821-.116 17.939 17.939 0 016.824.168 6.729 6.729 0 013.858 2.571 11.078 11.078 0 011.727 4.867 52.29 52.29 0 01.443 7.152 54.317 54.317 0 01-.767 9.459 32.446 32.446 0 01-2.63 8.338 28.607 28.607 0 01-4.955 7.233 32.783 32.783 0 01-7.663 5.968 20.088 20.088 0 01-7.206 2.793 7.2 7.2 0 01-4.985-.929 7.375 7.375 0 01-2.844-4.075 21.262 21.262 0 01-.907-6.494l10-8.013a12.822 12.822 0 001.4 5.96c.8 1.286 2.37 1.248 4.7-.1a10.426 10.426 0 003.216-2.768 11.8 11.8 0 001.787-3.435 16.072 16.072 0 00.725-3.835q.128-1.992.122-4.127a27.083 27.083 0 00-.287-4.317 4.644 4.644 0 00-1.075-2.48 3.379 3.379 0 00-2.228-.955 24.907 24.907 0 00-3.761.032 22.708 22.708 0 01-7.47-.279 8.041 8.041 0 01-4.324-2.472 9.1 9.1 0 01-1.956-4.418 36.013 36.013 0 01-.485-6.187 40.608 40.608 0 01.909-8.748 33.542 33.542 0 012.861-8.111A30.264 30.264 0 0194.753 9.337z" fill="#fff" stroke="#fbb03b" stroke-linecap="round" stroke-linejoin="round" stroke-width="1.001"/><path d="M51.777 86.954L40.462 93.53l-1.263-.729 5.187-3.014-6.137-3.543-5.187 3.014-1.263-.729 11.315-6.576 1.263.729-5.072 2.947 6.137 3.543 5.072-2.947zm-14.132-6.567q-.174 1.735-2.789 3.255l-.262.151a11.765 11.765 0 01-3.59 1.351 11.382 11.382 0 01-3.819.139 9.1 9.1 0 01-3.354-1.112q-2.262-1.307-2.094-3.045t2.784-3.258l.251-.146a11.966 11.966 0 017.409-1.483 9.007 9.007 0 013.363 1.1q2.274 1.312 2.101 3.048zm-4.2 2.622l.24-.139a5.494 5.494 0 001.89-1.659 1.967 1.967 0 00.31-1.754 2.89 2.89 0 00-1.41-1.5 7.068 7.068 0 00-4.059-.824 10.123 10.123 0 00-4.5 1.382l-.23.134a4.1 4.1 0 00-2.273 2.547q-.245 1.368 1.471 2.358a7.1 7.1 0 004.066.839 10.078 10.078 0 004.494-1.387m30.461 10.95l-11.316 6.576-1.265-.73 10.229-5.944-4.662-2.692-4.433 2.343a28.388 28.388 0 01-4.062 1.812 8.13 8.13 0 01-2.855.465 5.214 5.214 0 01-2.406-.712l-.484-.28 1.108-.644.41.213a3.639 3.639 0 002.6.291 19.03 19.03 0 004.282-1.768l5.71-3.051zm19.228 8.636q-.1-.912 1.114-1.618l1.074.621q-.869.5-.807 1.073t.987 1.1a3.982 3.982 0 001.928.556 3.432 3.432 0 001.829-.459l1.074.62a5.117 5.117 0 01-2.771.653 6.188 6.188 0 01-2.959-.848q-1.37-.788-1.469-1.698zm3.182 4.303l1.263.729-11.316 6.578-1.263-.729 9.3-5.4-15.445 1.854-1.252-.723 11.315-6.576 1.252.723-9.308 5.409zm-19.575-1.186a6.94 6.94 0 00-2.11 1.629l-.125.073-1.348-.778a6.145 6.145 0 011.337-1.057 10.434 10.434 0 01-3.011-.207 9.084 9.084 0 01-2.64-.984q-1.643-.948-1.748-2.064t1.285-1.924a6.471 6.471 0 014-.719 12.148 12.148 0 014.821 1.668l2.283 1.318 1.286-.747q1.213-.7 1.157-1.543t-1.5-1.673a6.559 6.559 0 00-2.848-.868 4.262 4.262 0 00-2.473.438l-1.254-.736a6.263 6.263 0 013.6-.629 9.363 9.363 0 014.093 1.219q1.905 1.1 2.059 2.285t-1.51 2.187zm-.708-1.039l2.489-1.446-2.252-1.3a10.166 10.166 0 00-3.633-1.3 4.477 4.477 0 00-2.89.447q-.949.552-.866 1.328t1.218 1.432a7.83 7.83 0 002.865.951 8.567 8.567 0 003.069-.107m33.663 9.945l-11.315 6.576-1.263-.729 5.187-3.014-6.137-3.543-5.187 3.014-1.263-.729 11.315-6.576 1.263.729-5.072 2.947 6.137 3.543 5.072-2.947z" fill="#fbb03b"/></svg>