<svg xmlns="http://www.w3.org/2000/svg" width="183.655" height="162.738" viewBox="0 0 183.655 162.738"><g transform="translate(-372.676 -430.498)"><path d="M552.886,536.25c3.907,2.256,3.928,5.942.052,8.194l-81.053,47.1a15.645,15.645,0,0,1-14.146,0l-81.577-47.1c-3.9-2.252-3.922-5.938-.046-8.191l81.053-47.1a15.635,15.635,0,0,1,14.14,0Z" fill="#f2f2f2"/><path d="M552.938,518.444l-81.053,47.1a15.645,15.645,0,0,1-14.146,0l-81.577-47.1c-1.963-1.133-2.944-2.63-2.94-4.124l-.046,16.3c0,1.494.976,2.991,2.939,4.124l81.577,47.1a15.641,15.641,0,0,0,14.147,0l81.053-47.1c1.925-1.119,2.889-2.591,2.893-4.066l.046-16.3C555.827,515.854,554.863,517.326,552.938,518.444Z" fill="#f2f2f2" stroke="#fbb03b" stroke-miterlimit="10" stroke-width="1"/><path d="M552.886,510.25c3.907,2.256,3.928,5.942.052,8.194l-81.053,47.1a15.645,15.645,0,0,1-14.146,0l-81.577-47.1c-3.9-2.252-3.922-5.938-.046-8.191l81.053-47.1a15.635,15.635,0,0,1,14.14,0Z" fill="#fff" stroke="#fbb03b" stroke-miterlimit="10" stroke-width="1"/><path d="M479.563,501.872c3.135,1.81,3.151,4.744.037,6.554l-21.852,12.7a12.464,12.464,0,0,1-11.309,0c-3.135-1.81-3.151-4.744-.043-6.551l21.852-12.7A12.468,12.468,0,0,1,479.563,501.872Z" fill="#f2f2f2"/><path d="M463.218,505.452l-10.572-6.143q1.334.774,4.018-.779a10.426,10.426,0,0,0,3.216-2.768,11.8,11.8,0,0,0,1.787-3.434,16.079,16.079,0,0,0,.725-3.836q.127-1.992.122-4.127a26.981,26.981,0,0,0-.287-4.317,4.651,4.651,0,0,0-1.075-2.48,2.776,2.776,0,0,0-.616-.483l10.572,6.144a2.775,2.775,0,0,1,.616.483,4.644,4.644,0,0,1,1.075,2.48,27.083,27.083,0,0,1,.287,4.317q.006,2.135-.122,4.127a16.072,16.072,0,0,1-.725,3.835,11.8,11.8,0,0,1-1.787,3.435,10.426,10.426,0,0,1-3.216,2.768Q464.551,506.223,463.218,505.452Z" fill="#f2f2f2" stroke="#fbb03b" stroke-linecap="round" stroke-linejoin="round" stroke-width="1.001"/><path d="M455.175,517.57,444.6,511.426c-.1-.056-.192-.115-.284-.176a7.378,7.378,0,0,1-2.845-4.075,21.272,21.272,0,0,1-.907-6.494l10.572,6.143a21.262,21.262,0,0,0,.907,6.494,7.375,7.375,0,0,0,2.844,4.075C454.984,517.455,455.079,517.514,455.175,517.57Z" fill="#f2f2f2" stroke="#fbb03b" stroke-linecap="round" stroke-linejoin="round" stroke-width="1.001"/><path d="M451.14,506.824l-10.572-6.144,10-8.014,10.572,6.144Z" fill="#f2f2f2" stroke="#fbb03b" stroke-linecap="round" stroke-linejoin="round" stroke-width="1.001"/><path d="M463.268,469.212,452.7,463.069a6.052,6.052,0,0,0,2.156.676,18.412,18.412,0,0,0,4.821-.116,17.967,17.967,0,0,1,6.825.168,8,8,0,0,1,1.884.777l10.572,6.144a7.952,7.952,0,0,0-1.885-.777,17.939,17.939,0,0,0-6.824-.168,18.456,18.456,0,0,1-4.821.116A6.032,6.032,0,0,1,463.268,469.212Z" fill="#f2f2f2" stroke="#fbb03b" stroke-linecap="round" stroke-linejoin="round" stroke-width="1.001"/><path d="M460.551,444.082l10.572,6.143a1.938,1.938,0,0,1,.655.645q1.2,1.861,1.212,5.906l-10.571-6.144c-.008-2.692-.41-4.665-1.213-5.906A1.916,1.916,0,0,0,460.551,444.082Z" fill="#f2f2f2" stroke="#fbb03b" stroke-linecap="round" stroke-linejoin="round" stroke-width="1.001"/><path d="M468.3,431.874a7.362,7.362,0,0,0-3.915-.873c-1.989.046-4.493.941-7.532,2.7A30.248,30.248,0,0,0,444.7,446.43a33.534,33.534,0,0,0-2.861,8.112,40.592,40.592,0,0,0-.909,8.747,36.014,36.014,0,0,0,.485,6.187,9.093,9.093,0,0,0,1.957,4.419,6.736,6.736,0,0,0,1.775,1.468l10.572,6.144a6.739,6.739,0,0,1-1.776-1.469,9.1,9.1,0,0,1-1.956-4.418,36.013,36.013,0,0,1-.485-6.187,40.608,40.608,0,0,1,.909-8.748,33.5,33.5,0,0,1,2.862-8.111,30.254,30.254,0,0,1,12.152-12.734c3.04-1.754,5.544-2.649,7.533-2.7a7.362,7.362,0,0,1,3.915.873Z" fill="#f2f2f2" stroke="#fbb03b" stroke-linecap="round" stroke-linejoin="round" stroke-width="1.001"/><path d="M467.423,439.84c3.04-1.754,5.544-2.649,7.533-2.7a6.768,6.768,0,0,1,4.749,1.469,8.4,8.4,0,0,1,2.525,4.193,20.3,20.3,0,0,1,.764,5.533l-10,8.436q-.01-4.039-1.212-5.906t-4.694.145a9.04,9.04,0,0,0-2.89,2.528,13.1,13.1,0,0,0-1.7,3.215,14.563,14.563,0,0,0-.815,3.461,31.077,31.077,0,0,0-.176,3.3,24.35,24.35,0,0,0,.194,3.246,3.264,3.264,0,0,0,1.074,2.1,5.139,5.139,0,0,0,2.651,1.027,18.456,18.456,0,0,0,4.821-.116,17.939,17.939,0,0,1,6.824.168,6.729,6.729,0,0,1,3.858,2.571,11.078,11.078,0,0,1,1.727,4.867,52.29,52.29,0,0,1,.443,7.152,54.317,54.317,0,0,1-.767,9.459,32.446,32.446,0,0,1-2.63,8.338,28.607,28.607,0,0,1-4.955,7.233,32.783,32.783,0,0,1-7.663,5.968,20.088,20.088,0,0,1-7.206,2.793,7.2,7.2,0,0,1-4.985-.929,7.375,7.375,0,0,1-2.844-4.075,21.262,21.262,0,0,1-.907-6.494l10-8.013a12.822,12.822,0,0,0,1.4,5.96c.8,1.286,2.37,1.248,4.7-.1a10.426,10.426,0,0,0,3.216-2.768,11.8,11.8,0,0,0,1.787-3.435,16.072,16.072,0,0,0,.725-3.835q.128-1.992.122-4.127a27.083,27.083,0,0,0-.287-4.317,4.644,4.644,0,0,0-1.075-2.48,3.379,3.379,0,0,0-2.228-.955,24.907,24.907,0,0,0-3.761.032,22.708,22.708,0,0,1-7.47-.279,8.041,8.041,0,0,1-4.324-2.472,9.1,9.1,0,0,1-1.956-4.418,36.013,36.013,0,0,1-.485-6.187,40.608,40.608,0,0,1,.909-8.748,33.542,33.542,0,0,1,2.861-8.111,30.264,30.264,0,0,1,12.153-12.734Z" fill="#fff" stroke="#fbb03b" stroke-linecap="round" stroke-linejoin="round" stroke-width="1.001"/><path d="M424.453,517.452l-11.315,6.576-1.263-.729,5.187-3.014-6.137-3.543-5.187,3.014-1.263-.729,11.315-6.576,1.263.729-5.072,2.947,6.137,3.543,5.072-2.947Z" fill="#fbb03b"/><path d="M410.321,510.885q-.174,1.735-2.789,3.255l-.262.151a11.765,11.765,0,0,1-3.59,1.351,11.382,11.382,0,0,1-3.819.139,9.1,9.1,0,0,1-3.354-1.112q-2.262-1.307-2.094-3.045t2.784-3.258l.251-.146a11.966,11.966,0,0,1,7.409-1.483,9.007,9.007,0,0,1,3.363,1.1Q410.494,509.149,410.321,510.885Zm-4.2,2.622.24-.139a5.494,5.494,0,0,0,1.89-1.659,1.967,1.967,0,0,0,.31-1.754,2.89,2.89,0,0,0-1.41-1.5,7.068,7.068,0,0,0-4.059-.824,10.123,10.123,0,0,0-4.5,1.382l-.23.134a4.1,4.1,0,0,0-2.273,2.547q-.245,1.368,1.471,2.358a7.1,7.1,0,0,0,4.066.839,10.078,10.078,0,0,0,4.494-1.387" fill="#fbb03b"/><path d="M436.581,524.454l-11.316,6.576L424,530.3l10.229-5.944-4.662-2.692-4.433,2.343a28.388,28.388,0,0,1-4.062,1.812,8.13,8.13,0,0,1-2.855.465,5.214,5.214,0,0,1-2.406-.712l-.484-.28,1.108-.644.41.213a3.639,3.639,0,0,0,2.6.291,19.03,19.03,0,0,0,4.282-1.768l5.71-3.051Z" fill="#fbb03b"/><g style="isolation:isolate"><path d="M455.809,533.09q-.1-.912,1.114-1.618l1.074.621q-.869.5-.807,1.073t.987,1.1a3.982,3.982,0,0,0,1.928.556,3.432,3.432,0,0,0,1.829-.459l1.074.62a5.117,5.117,0,0,1-2.771.653,6.188,6.188,0,0,1-2.959-.848Q455.908,534,455.809,533.09Z" fill="#fbb03b"/><path d="M458.991,537.393l1.263.729L448.938,544.7l-1.263-.729,9.3-5.4-15.445,1.854-1.252-.723,11.315-6.576,1.252.723-9.308,5.409Z" fill="#fbb03b"/></g><path d="M439.416,536.207a6.94,6.94,0,0,0-2.11,1.629l-.125.073-1.348-.778a6.145,6.145,0,0,1,1.337-1.057,10.434,10.434,0,0,1-3.011-.207,9.084,9.084,0,0,1-2.64-.984q-1.643-.948-1.748-2.064t1.285-1.924a6.471,6.471,0,0,1,4-.719,12.148,12.148,0,0,1,4.821,1.668l2.283,1.318,1.286-.747q1.213-.7,1.157-1.543t-1.5-1.673a6.559,6.559,0,0,0-2.848-.868,4.262,4.262,0,0,0-2.473.438l-1.254-.736a6.263,6.263,0,0,1,3.6-.629,9.363,9.363,0,0,1,4.093,1.219q1.905,1.1,2.059,2.285t-1.51,2.187Zm-.708-1.039,2.489-1.446-2.252-1.3a10.166,10.166,0,0,0-3.633-1.3,4.477,4.477,0,0,0-2.89.447q-.949.552-.866,1.328t1.218,1.432a7.83,7.83,0,0,0,2.865.951,8.567,8.567,0,0,0,3.069-.107" fill="#fbb03b"/><path d="M472.371,545.118l-11.315,6.576-1.263-.729,5.187-3.014-6.137-3.543-5.187,3.014-1.263-.729,11.315-6.576,1.263.729-5.072,2.947,6.137,3.543,5.072-2.947Z" fill="#fbb03b"/></g></svg>