<svg xmlns="http://www.w3.org/2000/svg" width="64" height="64"><g fill-rule="evenodd"><path d="M64 32A32 32 0 1132 0a31.916 31.916 0 0132 32z" fill="#fff"/><path d="M32 13.915a12.519 12.519 0 1012.568 12.516A12.547 12.547 0 0032 13.915zm0 22.262a9.742 9.742 0 119.791-9.746A9.772 9.772 0 0132 36.177zM32 0a32 32 0 1032 32A32 32 0 0032 0zm0 61.215a29.08 29.08 0 01-17.9-6.119 9.753 9.753 0 019.55-7.8h16.692a9.738 9.738 0 019.543 7.8A29.058 29.058 0 0132 61.215zm20.23-8.135a12.523 12.523 0 00-11.883-8.557H23.654a12.523 12.523 0 00-11.883 8.557 29.215 29.215 0 1140.459 0zM32 13.915a12.519 12.519 0 1012.568 12.516A12.547 12.547 0 0032 13.915zm0 22.262a9.742 9.742 0 119.791-9.746A9.772 9.772 0 0132 36.177zm0-22.262a12.519 12.519 0 1012.568 12.516A12.547 12.547 0 0032 13.915zm0 22.262a9.742 9.742 0 119.791-9.746A9.772 9.772 0 0132 36.177z" fill="#fbb03b"/></g></svg>