<svg xmlns="http://www.w3.org/2000/svg" width="64" height="64"><defs><clipPath id="a"><path d="M175.586 200.682l-7.132 10.577h7.132zm2.706-4.282v14.867h3.138v2.682h-3.138v5.551h-2.706v-5.553h-10.075v-2.895l10.162-14.652zm-15.78 20.4v2.7H147.4v-.077a9.709 9.709 0 012.05-5.912 18.057 18.057 0 014.816-3.8c-.007 0 .9-.565 1.163-.732a12.879 12.879 0 002.947-2.364 5.051 5.051 0 001.329-3.416 4.119 4.119 0 00-4.364-4.265c-2.991 0-4.53 2.275-4.611 5.692v.071h-2.686v-.069l-.03-.619c0-4.572 2.982-7.615 7.46-7.615 4.382 0 7.235 2.654 7.235 6.745a7.29 7.29 0 01-2.191 5.282 21.062 21.062 0 01-4.714 3.426l-.1.062-.816.485a13.752 13.752 0 00-2.578 1.841 5.321 5.321 0 00-1.566 2.564z" transform="translate(-147.4 -196.4)" fill="#333"/></clipPath></defs><g transform="translate(-13 -13)"><ellipse cx="29.5" cy="29" rx="29.5" ry="29" transform="translate(16 16)" fill="#fff"/><path d="M45 13a32 32 0 1032 32 32 32 0 00-32-32zm0 60.477A28.477 28.477 0 1173.477 45 28.477 28.477 0 0145 73.477z" fill="#8dc641"/><path d="M56.171 37.731l-7.132 10.577h7.132zm2.706-4.282v14.867h3.138v2.682h-3.138v5.551h-2.706v-5.553H46.096v-2.895l10.162-14.652zm-15.78 20.4v2.7H27.985v-.077a9.709 9.709 0 012.05-5.912 18.057 18.057 0 014.816-3.8c-.007 0 .9-.565 1.163-.732a12.879 12.879 0 002.947-2.364 5.051 5.051 0 001.329-3.416 4.119 4.119 0 00-4.364-4.265c-2.991 0-4.53 2.275-4.611 5.692v.071h-2.686v-.069l-.03-.619c0-4.572 2.982-7.615 7.46-7.615 4.382 0 7.235 2.654 7.235 6.745a7.29 7.29 0 01-2.191 5.282 21.062 21.062 0 01-4.714 3.426l-.1.062-.816.485a13.752 13.752 0 00-2.578 1.841 5.321 5.321 0 00-1.566 2.564z" fill="#333"/><g clip-path="url(#a)" transform="translate(27.985 33.449)"><path fill="#333" d="M-3.977-3.977h41.983v31.056H-3.977z"/></g></g></svg>