<svg xmlns="http://www.w3.org/2000/svg" xmlns:xlink="http://www.w3.org/1999/xlink" width="64" height="64" viewBox="0 0 64 64"><defs><clipPath id="a"><path d="M175.586,200.682l-7.132,10.577h7.132Zm2.706-4.282v14.867h3.138v2.682h-3.138V219.5h-2.706v-5.553H165.511v-2.895L175.673,196.4Zm-15.78,20.4v2.7H147.4l0-.077a9.709,9.709,0,0,1,2.05-5.912,18.057,18.057,0,0,1,4.816-3.8c-.007,0,.9-.565,1.163-.732a12.879,12.879,0,0,0,2.947-2.364,5.051,5.051,0,0,0,1.329-3.416,4.119,4.119,0,0,0-4.364-4.265c-2.991,0-4.53,2.275-4.611,5.692l0,.071h-2.686l0-.069-.03-.619c0-4.572,2.982-7.615,7.46-7.615,4.382,0,7.235,2.654,7.235,6.745a7.29,7.29,0,0,1-2.191,5.282,21.062,21.062,0,0,1-4.714,3.426l-.1.062-.816.485a13.752,13.752,0,0,0-2.578,1.841,5.321,5.321,0,0,0-1.566,2.564Z" transform="translate(-147.4 -196.4)" fill="#333"/></clipPath></defs><g transform="translate(-13 -13)"><ellipse cx="29.5" cy="29" rx="29.5" ry="29" transform="translate(16 16)" fill="#fff"/><g transform="translate(13 13)"><path d="M45,13A32,32,0,1,0,77,45,32,32,0,0,0,45,13Zm0,60.477A28.477,28.477,0,1,1,73.477,45,28.477,28.477,0,0,1,45,73.477Z" transform="translate(-13 -13)" fill="#8dc641"/><g transform="translate(14.985 20.449)"><path d="M175.586,200.682l-7.132,10.577h7.132Zm2.706-4.282v14.867h3.138v2.682h-3.138V219.5h-2.706v-5.553H165.511v-2.895L175.673,196.4Zm-15.78,20.4v2.7H147.4l0-.077a9.709,9.709,0,0,1,2.05-5.912,18.057,18.057,0,0,1,4.816-3.8c-.007,0,.9-.565,1.163-.732a12.879,12.879,0,0,0,2.947-2.364,5.051,5.051,0,0,0,1.329-3.416,4.119,4.119,0,0,0-4.364-4.265c-2.991,0-4.53,2.275-4.611,5.692l0,.071h-2.686l0-.069-.03-.619c0-4.572,2.982-7.615,7.46-7.615,4.382,0,7.235,2.654,7.235,6.745a7.29,7.29,0,0,1-2.191,5.282,21.062,21.062,0,0,1-4.714,3.426l-.1.062-.816.485a13.752,13.752,0,0,0-2.578,1.841,5.321,5.321,0,0,0-1.566,2.564Z" transform="translate(-147.4 -196.4)" fill="#333"/><g clip-path="url(#a)"><rect width="41.983" height="31.056" transform="translate(-3.977 -3.977)" fill="#333"/></g></g></g></g></svg>