<svg xmlns="http://www.w3.org/2000/svg" xmlns:xlink="http://www.w3.org/1999/xlink"><symbol id="icon-email" viewBox="0 0 24 16"><path d="M478,751.685l-8.563,4.671a3,3,0,0,1-2.874,0L458,751.685V761a1,1,0,0,0,1,1h18a1,1,0,0,0,1-1ZM459.088,750l8.433,4.6a1,1,0,0,0,.958,0l8.433-4.6Zm-2.777-.331A3,3,0,0,1,459,748h18a3,3,0,0,1,3,3v10a3,3,0,0,1-3,3H459a3,3,0,0,1-3-3V751A3,3,0,0,1,456.311,749.669Z" transform="translate(-456 -748)" fill="#ffc200" fill-rule="evenodd"/></symbol><symbol id="icon-phone" viewBox="0 0 22 30"><g transform="translate(-77 -593)"><path d="M80,603a1,1,0,0,0-1,1v16a1,1,0,0,0,1,1h8a1,1,0,0,0,1-1V604a1,1,0,0,0-1-1Zm-3,1a3,3,0,0,1,3-3h8a3,3,0,0,1,3,3v16a3,3,0,0,1-3,3H80a3,3,0,0,1-3-3Zm8.25,13.969a1.343,1.343,0,1,1-1.344-1.344A1.344,1.344,0,0,1,85.25,617.969Z" fill="#ffc200" fill-rule="evenodd"/><path d="M91,598a1,1,0,0,1,1-1,3,3,0,0,1,3,3,1,1,0,0,1-2,0,1,1,0,0,0-1-1A1,1,0,0,1,91,598Z" fill="#ffc200" fill-rule="evenodd"/><path d="M91,594a1,1,0,0,1,1-1,7,7,0,0,1,7,7,1,1,0,0,1-2,0,5,5,0,0,0-5-5A1,1,0,0,1,91,594Z" fill="#ffc200" fill-rule="evenodd"/></g></symbol></svg>