<svg xmlns="http://www.w3.org/2000/svg" width="65.781" height="48.621" viewBox="0 0 65.781 48.621">
  <g id="Сгруппировать_342" data-name="Сгруппировать 342" transform="translate(-369.609 -379.19)">
    <rect id="Прямоугольник_573" data-name="Прямоугольник 573" width="63" height="47" rx="7" transform="translate(371 380)" fill="#fff"/>
    <path id="Контур_1080" data-name="Контур 1080" d="M2371.94,543.25a1.431,1.431,0,0,1,1.43-1.43h17.16a1.43,1.43,0,0,1,0,2.86h-17.16A1.431,1.431,0,0,1,2371.94,543.25Zm51.48-21.45H2363.36v27.17a4.29,4.29,0,0,0,4.291,4.29h51.48a4.292,4.292,0,0,0,4.29-4.29Zm-55.77-11.44a4.29,4.29,0,0,0-4.291,4.29v4.29h60.061v-4.29a4.292,4.292,0,0,0-4.29-4.29Zm-7.15,4.29a7.149,7.149,0,0,1,7.15-7.15h51.48a7.149,7.149,0,0,1,7.15,7.15v34.32a7.149,7.149,0,0,1-7.15,7.15h-51.48a7.149,7.149,0,0,1-7.15-7.15Z" transform="translate(-1990.891 -128.31)" fill="#fbb03b" fill-rule="evenodd"/>
  </g>
</svg>
