<svg xmlns="http://www.w3.org/2000/svg" width="63.145" height="80.117" viewBox="0 0 63.145 80.117"><g transform="translate(-507.835 -89.616)"><path d="M516.5,211.5l3.112,3.112a11.96,11.96,0,0,0,8.457,3.5h30.387a11.96,11.96,0,0,0,8.457-3.5l3.112-3.112Z" transform="translate(-3.255 -48.383)" fill="#e6e6e6"/><path d="M22.252,0h0A22.252,22.252,0,0,1,44.5,22.252V49.315a0,0,0,0,1,0,0H0a0,0,0,0,1,0,0V22.252A22.252,22.252,0,0,1,22.252,0Z" transform="translate(517.155 107.487)" fill="#fff" stroke="#fbb03b" stroke-miterlimit="10" stroke-width="2.835"/><g transform="translate(508.335 90.116)"><path d="M512.87,97.31h-1.422v4.235h-3.113V90.484h3.113v4.3h1.5l2.639-4.3h3.287l-3.461,5.341,3.492,5.72h-3.523Z" transform="translate(-508.335 -90.263)" fill="#fff" stroke="#fbb03b" stroke-linecap="round" stroke-linejoin="round" stroke-width="1.001"/><path d="M536.018,99.4h-4.677l-.87,2.149H527.28l4.882-11.061h3.081l4.9,11.061h-3.255Zm-.917-2.307-1.422-3.539-1.422,3.539Z" transform="translate(-515.886 -90.263)" fill="#fff" stroke="#fbb03b" stroke-linecap="round" stroke-linejoin="round" stroke-width="1.001"/><path d="M552.283,100.885a5.491,5.491,0,0,1-2.173-2.046,5.983,5.983,0,0,1,0-5.941,5.493,5.493,0,0,1,2.173-2.047,6.542,6.542,0,0,1,3.121-.735,6.707,6.707,0,0,1,2.734.538A5.264,5.264,0,0,1,560.16,92.2L558.169,94a3.277,3.277,0,0,0-2.608-1.3,3.22,3.22,0,0,0-1.6.4,2.738,2.738,0,0,0-1.091,1.114,3.718,3.718,0,0,0,0,3.3,2.737,2.737,0,0,0,1.091,1.114,3.214,3.214,0,0,0,1.6.4,3.276,3.276,0,0,0,2.608-1.3l1.991,1.8a5.265,5.265,0,0,1-2.023,1.549,6.707,6.707,0,0,1-2.734.537A6.549,6.549,0,0,1,552.283,100.885Z" transform="translate(-524.671 -90.116)" fill="#fff" stroke="#fbb03b" stroke-linecap="round" stroke-linejoin="round" stroke-width="1.001"/><path d="M573.065,100.885a5.489,5.489,0,0,1-2.173-2.046,5.982,5.982,0,0,1,0-5.941,5.49,5.49,0,0,1,2.173-2.047,6.538,6.538,0,0,1,3.12-.735,6.707,6.707,0,0,1,2.734.538,5.258,5.258,0,0,1,2.023,1.548L578.951,94a3.277,3.277,0,0,0-2.608-1.3,3.22,3.22,0,0,0-1.6.4,2.742,2.742,0,0,0-1.091,1.114,3.718,3.718,0,0,0,0,3.3,2.74,2.74,0,0,0,1.091,1.114,3.214,3.214,0,0,0,1.6.4,3.276,3.276,0,0,0,2.608-1.3l1.991,1.8a5.259,5.259,0,0,1-2.023,1.549,6.707,6.707,0,0,1-2.734.537A6.545,6.545,0,0,1,573.065,100.885Z" transform="translate(-532.955 -90.116)" fill="#fff" stroke="#fbb03b" stroke-linecap="round" stroke-linejoin="round" stroke-width="1.001"/><path d="M599.019,99.4h-4.677l-.87,2.149h-3.191l4.882-11.061h3.081l4.9,11.061h-3.255Zm-.917-2.307L596.68,93.55l-1.422,3.539Z" transform="translate(-540.998 -90.263)" fill="#fff" stroke="#fbb03b" stroke-linecap="round" stroke-linejoin="round" stroke-width="1.001"/></g><rect width="52.322" height="5.413" transform="translate(513.246 157.704)" fill="none" stroke="#fbb03b" stroke-miterlimit="10" stroke-width="2.835"/></g></svg>