<svg xmlns="http://www.w3.org/2000/svg" width="137.283" height="193.224" viewBox="0 0 137.283 193.224"><g transform="translate(-1037.076 -563.255)"><g transform="translate(1037.076 718.236)"><path d="M1098.862,654.878c5.458,3.151,5.486,8.26.064,11.411L1060.88,688.4c-5.413,3.146-14.232,3.146-19.69-.005s-5.486-8.26-.075-11.406l38.047-22.11C1084.584,651.727,1093.4,651.727,1098.862,654.878Z" transform="translate(-1037.076 -652.515)" fill="#f2f2f2"/></g><g transform="translate(1108.461 707.789)"><path d="M1139.862,648.878c5.458,3.151,5.486,8.26.064,11.411L1101.88,682.4c-5.413,3.146-14.232,3.146-19.69-.005s-5.486-8.26-.075-11.406l38.047-22.11C1125.583,645.727,1134.4,645.727,1139.862,648.878Z" transform="translate(-1078.076 -646.515)" fill="#f2f2f2"/></g><path d="M1114.109,602.474l-.211-31.509-12.271-7.132-48.645,28.342c-5.847,3.4-10.61,11.692-10.558,18.4l.841,124.273c.021,3.308,1.2,5.643,3.1,6.747l12.271,7.131c-1.9-1.1-3.082-3.439-3.1-6.747l-.843-124.273c-.052-6.712,4.713-15,10.56-18.4l36.469-21.248.116,17.46c.021,3.317,1.21,5.652,3.113,6.759l.066.038c-.022-.014-.047-.021-.07-.033l12.271,7.13c1.941,1.128,4.628.977,7.577-.728Z" transform="translate(3.963)" fill="#f2f2f2" stroke="#fbb03b" stroke-miterlimit="10" stroke-width="1"/><g transform="translate(1058.656 570.966)"><path d="M1108.676,567.93l36.107,23.038.63,92.574c.052,6.714-4.7,15-10.558,18.405l-73.812,43c-5.892,3.4-10.687.7-10.729-6l-.843-124.273c-.052-6.712,4.713-15,10.56-18.4l48.644-28.342Z" transform="translate(-1049.471 -567.93)" fill="#fff" stroke="#fbb03b" stroke-linecap="round" stroke-linejoin="round" stroke-width="1.001"/></g><g transform="translate(1058.869 570.089)"><path d="M1084.056,567.438a.382.382,0,0,1,.259.031l-.005,0A.35.35,0,0,0,1084.056,567.438Z" transform="translate(-1024.053 -567.427)" fill="#fbb03b"/><path d="M1097.412,608.578l-37.673,21.942.015,1.411L1097.416,610Z" transform="translate(-1042.074 -536.929)" fill="#fbb03b"/><path d="M1059.882,658.1l.015,1.412,63.607-37.056-.015-1.411Z" transform="translate(-1041.968 -527.69)" fill="#fbb03b"/><path d="M1123.421,610.473l-63.607,37.043,0,1.418,63.607-37.043Z" transform="translate(-1042.018 -535.525)" fill="#fbb03b"/><path d="M1146.083,591.225l.011-.021a.915.915,0,0,0,.038-.383.446.446,0,0,0-.023-.085.462.462,0,0,0-.029-.118v.07c-.03-.068-.052-.145-.11-.178l-36.114-23.042a.39.39,0,0,0-.28-.024.724.724,0,0,0-.214.1l-48.589,28.295c-6.193,3.615-11.2,12.327-11.18,19.493l.841,124.259c.043,7.09,5.117,9.956,11.343,6.362l73.821-43.005c6.181-3.6,11.19-12.32,11.169-19.474Zm-1.981.145-23.561,13.73-.228.132c-5.492,3.171-10.031.622-10.071-5.688l-.2-29.89Zm-8.517,110.164-73.856,43.024c-5.491,3.171-10.02.616-10.06-5.681l-.843-124.323c-.017-6.31,4.459-14.089,9.95-17.286l48.021-27.981.211,30.983c.054,7.083,5.127,9.949,11.354,6.353l.01-.005h0l24.536-14.291.625,91.921C1145.552,690.56,1141.076,698.337,1135.584,701.534Z" transform="translate(-1049.593 -567.425)" fill="#fbb03b"/></g><g transform="translate(1112.791 645.674)"><path d="M1118.345,612.3c-3.933-2.286-9.379-1.962-15.389,1.508-11.939,6.893-21.579,23.59-21.541,37.308a21.744,21.744,0,0,0,1.224,7.445l-2.068,28.317a1.645,1.645,0,0,0,.639,1.638l12.271,7.132a1.647,1.647,0,0,1-.639-1.638l2.068-28.319a21.7,21.7,0,0,1-1.222-7.443c-.04-13.718,9.6-30.415,21.539-37.308,6.01-3.47,11.456-3.794,15.39-1.508Z" transform="translate(-1080.563 -610.839)" fill="#f2f2f2" stroke="#fbb03b" stroke-miterlimit="10" stroke-width="1"/><g transform="translate(12.271 7.131)"><path d="M1110,617.9c11.939-6.893,21.652-1.37,21.691,12.35a35.789,35.789,0,0,1-1.187,8.836l2.222,25.841a4.815,4.815,0,0,1-2.2,4.038,2.366,2.366,0,0,1-.675.268l-19.7,4.015-19.655,18.7a3.683,3.683,0,0,1-.672.51c-1.247.719-2.323.1-2.215-1.492l2.069-28.319a21.74,21.74,0,0,1-1.224-7.443C1088.424,641.492,1098.065,624.8,1110,617.9Z" transform="translate(-1087.611 -614.935)" fill="#fff" stroke="#fbb03b" stroke-linecap="round" stroke-linejoin="round" stroke-width="1.001"/></g><g transform="translate(35.416 43.516)"><path d="M1100.9,635.853l.012-.021,0,.005Z" transform="translate(-1100.904 -635.832)" fill="#fbb03b"/></g><g transform="translate(34.591 43.573)"><path d="M1100.43,636.332a.46.46,0,0,0,.4-.061,1.212,1.212,0,0,0,.4-.406,1.191,1.191,0,0,1-.4.409A.446.446,0,0,1,1100.43,636.332Z" transform="translate(-1100.43 -635.865)" fill="#fbb03b"/></g><g transform="translate(13.358 6.524)"><path d="M1109.724,617.532c11.88-6.858,21.591-1.335,21.63,12.327s-9.611,30.361-21.489,37.22-21.591,1.325-21.63-12.325S1097.834,624.4,1109.724,617.532Zm.136,48.161c11.223-6.48,20.322-22.243,20.286-35.137s-9.2-18.127-20.418-11.648-20.333,22.248-20.3,35.154,9.2,18.115,20.428,11.631" transform="translate(-1088.235 -614.586)" fill="#fbb03b"/><g transform="translate(20.381 12.808)"><path d="M1112.469,622.024a.435.435,0,0,1,.4-.054c.249.117.272.538.045.954l-11.933,22.051a1.309,1.309,0,0,1-.442.481.438.438,0,0,1-.386.057c-.26-.145-.277-.554-.058-.958l.42-.775,11.514-21.276A1.244,1.244,0,0,1,1112.469,622.024Z" transform="translate(-1099.941 -621.942)" fill="#fbb03b"/></g><g transform="translate(13.166 30.754)"><path d="M1103.164,636.917c-.219.4-.2.813.028.942l-7.217-4.111c-.237-.123-.239-.569,0-.966a1.213,1.213,0,0,1,.425-.451.431.431,0,0,1,.427-.042l6.759,3.853Z" transform="translate(-1095.797 -632.249)" fill="#fbb03b"/></g></g><line x2="12.188" y2="6.964" transform="translate(3.373 48.161)" stroke-width="1.001" stroke="#fbb03b" stroke-linecap="round" stroke-linejoin="round" fill="none"/></g></g></svg>