<svg xmlns="http://www.w3.org/2000/svg" width="64" height="64" viewBox="0 0 64 64"><g transform="translate(-729.5 -126)"><path d="M793.5,158a32,32,0,1,1-32-32A31.916,31.916,0,0,1,793.5,158Z" fill="#fff" fill-rule="evenodd"/><path d="M761.5,139.915a12.519,12.519,0,1,0,12.568,12.516A12.547,12.547,0,0,0,761.5,139.915Zm0,22.262a9.742,9.742,0,1,1,9.791-9.746A9.772,9.772,0,0,1,761.5,162.177Zm0-36.177a32,32,0,1,0,32,32A32,32,0,0,0,761.5,126Zm0,61.215a29.08,29.08,0,0,1-17.9-6.119,9.753,9.753,0,0,1,9.55-7.8h16.692a9.738,9.738,0,0,1,9.543,7.8A29.058,29.058,0,0,1,761.5,187.215Zm20.23-8.135a12.523,12.523,0,0,0-11.883-8.557H753.154a12.523,12.523,0,0,0-11.883,8.557,29.215,29.215,0,1,1,40.459,0ZM761.5,139.915a12.519,12.519,0,1,0,12.568,12.516A12.547,12.547,0,0,0,761.5,139.915Zm0,22.262a9.742,9.742,0,1,1,9.791-9.746A9.772,9.772,0,0,1,761.5,162.177Zm0-22.262a12.519,12.519,0,1,0,12.568,12.516A12.547,12.547,0,0,0,761.5,139.915Zm0,22.262a9.742,9.742,0,1,1,9.791-9.746A9.772,9.772,0,0,1,761.5,162.177Z" fill="#fbb03b" fill-rule="evenodd"/></g></svg>